<svg width="18" height="18" viewBox="0 0 18 18" fill="none" xmlns="http://www.w3.org/2000/svg">
<path fill-rule="evenodd" clip-rule="evenodd" d="M11.9055 12.6854C10.6852 13.7095 9.10858 14.3266 7.38736 14.3266C3.51496 14.3266 0.375 11.2042 0.375 7.35046C0.375 3.49733 3.51508 0.375 7.38736 0.375C11.259 0.375 14.399 3.49746 14.399 7.35046C14.399 9.09546 13.7552 10.6906 12.6911 11.9137L17.4637 16.6852C17.6788 16.9002 17.6788 17.2488 17.4637 17.4638C17.2487 17.6787 16.9 17.6787 16.685 17.4638L11.9055 12.6854ZM13.2977 7.35046C13.2977 4.10687 10.6521 1.47604 7.38736 1.47604C4.12198 1.47604 1.4763 4.10676 1.4763 7.35046C1.4763 10.5948 4.12188 13.2256 7.38736 13.2256C10.6522 13.2256 13.2977 10.5947 13.2977 7.35046Z" fill="#1A1A1A"/>
</svg>
