<?xml version="1.0" encoding="UTF-8" standalone="no"?>
<!DOCTYPE svg PUBLIC "-//W3C//DTD SVG 1.1//EN" "http://www.w3.org/Graphics/SVG/1.1/DTD/svg11.dtd">
<svg version="1.1" xmlns="http://www.w3.org/2000/svg" xmlns:xlink="http://www.w3.org/1999/xlink" preserveAspectRatio="xMidYMid meet" viewBox="0 0 640 640" width="640" height="640"><defs><path d="M497.34 83.58C504.51 79.23 512.7 76.8 521.79 76.8C547.52 76.8 568.38 97.22 568.38 122.43C568.38 131.07 566.02 139.01 561.79 145.86C561.81 145.88 561.96 146.03 561.98 146.05C598.59 194.69 619.65 254.91 619.65 320C619.65 482.11 485.5 613.5 320 613.5C154.5 613.5 20.35 482.11 20.35 320C20.35 157.89 154.5 26.5 320 26.5C386.3 26.5 447.68 47.87 497.34 83.58" id="c177Axrd8"></path><path d="M537.66 165.06C532.74 166.78 526.91 167.94 521.41 167.94C495.87 167.94 475.14 147.65 475.14 122.62C475.14 116.99 476.16 111.62 478.08 106.62C433.66 75.01 378.94 56.26 319.81 56.26C171.2 56.26 50.62 174.34 50.62 320C50.62 465.66 171.14 583.68 319.81 583.68C468.48 583.68 588.99 465.6 588.99 320C589.06 262.14 569.92 208.51 537.66 165.06" id="davpZB6Am"></path><path d="M521.34 168C495.81 168 475.07 147.71 475.07 122.69C475.07 117.06 476.1 111.68 478.02 106.69C433.6 75.07 378.94 56.32 319.81 56.32C171.2 56.32 50.69 174.34 50.69 319.94C50.69 465.54 171.2 583.55 319.81 583.55C468.42 583.55 588.93 465.54 588.93 319.94C588.99 262.14 569.79 208.58 537.6 165.12C532.67 166.85 526.85 168 521.34 168Z" id="b1MbTgCkOT"></path><path d="M496.32 122.05C496.32 108.29 507.71 97.15 521.79 97.15C535.87 97.15 547.26 108.29 547.26 122.05C547.26 135.81 535.87 146.94 521.79 146.94C507.71 146.94 496.32 135.81 496.32 122.05" id="a2ebPPRa07"></path><path d="M521.73 97.22C535.74 97.22 547.14 108.35 547.14 122.05C547.14 135.74 535.81 146.88 521.73 146.88C507.78 146.88 496.38 135.74 496.38 122.05C496.38 108.35 507.71 97.22 521.73 97.22Z" id="eEN3ZDH8N"></path><path d="M505.6 407.62L471.62 407.49L493.89 358.02L453.76 255.87L487.62 255.87L509.5 321.73L510.72 321.73L531.01 255.74L564.67 255.74L505.6 407.62Z" id="a8MYUJnpnG"></path><path d="M448.51 332.61C448.51 356.86 421.38 365.95 395.78 365.95C370.24 365.95 343.68 356.35 343.68 332.42C347.04 332.42 373.92 332.42 377.28 332.42C377.28 339.9 387.84 342.72 395.84 342.72C403.65 342.72 413.82 340.67 413.82 333.44C413.82 324.35 401.22 323.01 381.38 317.95C360.77 312.64 346.11 303.81 346.11 284.8C346.11 260.67 370.11 252.35 395.78 252.35C421.18 252.35 444.35 260.61 444.42 284.74C441.1 284.75 414.58 284.85 411.26 284.86C411.26 278.14 402.82 275.58 395.84 275.58C388.74 275.58 380.48 277.25 380.48 283.9C380.48 292.99 394.62 294.14 410.62 297.98C430.98 302.91 448.45 311.04 448.51 332.61" id="d1jv0AZHju"></path><path d="M293.38 362.11L293.44 349.89C292.71 349.89 292.31 349.89 292.22 349.89C286.98 360.26 276.48 365.95 260.16 365.95C232.51 366.02 208.64 343.81 208.58 308.8C208.58 273.41 230.4 252.29 258.11 252.22C273.54 252.22 286.21 258.43 291.9 267.71C291.99 267.71 292.39 267.69 293.12 267.65L293.06 255.68L324.67 255.68L324.86 361.92L293.38 362.11ZM292.93 308.86C292.93 294.66 284.86 281.34 266.11 281.34C247.36 281.34 241.28 296.19 241.28 308.93C241.28 322.37 248.64 336.96 267.58 336.96C287.04 336.9 292.93 321.66 292.93 308.86" id="hv3brtYDP"></path><path d="M338.61 466.71L338.92 466.73L339.23 466.75L339.53 466.78L339.84 466.82L340.14 466.86L340.44 466.91L340.74 466.96L341.04 467.02L341.34 467.09L341.63 467.16L341.92 467.23L342.22 467.32L342.5 467.4L342.79 467.5L343.08 467.6L343.36 467.7L343.64 467.81L343.92 467.93L344.2 468.05L344.48 468.18L344.76 468.31L345.03 468.44L345.31 468.57L345.58 468.71L345.84 468.85L346.11 469L346.37 469.15L346.63 469.31L346.89 469.47L347.15 469.64L347.4 469.81L347.65 469.98L347.89 470.16L348.14 470.35L348.38 470.53L348.62 470.73L348.85 470.92L349.09 471.13L349.31 471.33L349.54 471.54L349.76 471.76L349.98 471.97L350.2 472.2L350.41 472.42L350.62 472.65L350.82 472.88L351.02 473.11L351.22 473.34L351.42 473.58L351.61 473.82L351.79 474.06L351.98 474.31L352.16 474.56L352.33 474.82L352.51 475.08L352.67 475.34L352.84 475.6L353 475.87L353.16 476.14L353.31 476.42L353.47 476.69L353.61 476.97L353.76 477.26L353.9 477.54L354.03 477.83L354.17 478.13L354.3 478.42L354.42 478.72L354.55 479.02L354.66 479.32L354.78 479.62L354.88 479.93L354.99 480.23L355.09 480.54L355.18 480.85L355.27 481.16L355.35 481.48L355.43 481.8L355.5 482.11L355.57 482.44L355.63 482.76L355.69 483.09L355.74 483.41L355.79 483.75L355.83 484.08L355.87 484.42L355.9 484.75L355.93 485.1L355.95 485.44L355.97 485.79L355.98 486.14L355.99 486.49L355.99 486.85L355.99 487.2L355.98 487.55L355.97 487.89L355.95 488.23L355.93 488.57L355.9 488.91L355.87 489.24L355.83 489.57L355.79 489.9L355.74 490.23L355.69 490.56L355.63 490.89L355.57 491.21L355.5 491.53L355.43 491.85L355.35 492.17L355.27 492.49L355.18 492.81L355.09 493.12L354.99 493.44L354.88 493.75L354.78 494.07L354.66 494.38L354.55 494.69L354.43 495L354.31 495.3L354.19 495.6L354.06 495.9L353.93 496.2L353.8 496.49L353.66 496.78L353.51 497.07L353.36 497.35L353.21 497.63L353.05 497.91L352.89 498.18L352.73 498.45L352.56 498.72L352.38 498.98L352.2 499.24L352.02 499.5L351.83 499.75L351.64 500L351.44 500.25L351.24 500.49L351.04 500.73L350.83 500.97L350.62 501.21L350.4 501.44L350.18 501.66L349.96 501.89L349.74 502.1L349.51 502.32L349.28 502.53L349.05 502.74L348.82 502.94L348.59 503.14L348.35 503.33L348.11 503.52L347.87 503.71L347.62 503.89L347.38 504.07L347.13 504.24L346.87 504.41L346.62 504.58L346.36 504.74L346.1 504.9L345.84 505.05L345.57 505.2L345.3 505.35L345.03 505.49L344.76 505.63L344.48 505.75L344.2 505.87L343.92 505.98L343.64 506.09L343.36 506.2L343.08 506.3L342.79 506.39L342.5 506.48L342.22 506.56L341.92 506.64L341.63 506.71L341.34 506.78L341.04 506.84L340.74 506.9L340.44 506.95L340.14 507L339.84 507.04L339.53 507.08L339.23 507.11L338.92 507.13L338.61 507.15L338.29 507.17L337.98 507.18L337.66 507.18L337.35 507.18L337.04 507.17L336.73 507.16L336.43 507.14L336.12 507.12L335.81 507.09L335.51 507.06L335.21 507.02L334.9 506.97L334.6 506.93L334.3 506.87L334.01 506.81L333.71 506.74L333.41 506.67L333.12 506.6L332.83 506.51L332.54 506.42L332.25 506.33L331.96 506.23L331.68 506.12L331.4 506.01L331.12 505.89L330.84 505.76L330.56 505.63L330.29 505.49L330.01 505.35L329.74 505.2L329.48 505.05L329.21 504.9L328.95 504.74L328.69 504.58L328.43 504.41L328.17 504.24L327.92 504.07L327.67 503.89L327.42 503.71L327.18 503.52L326.94 503.33L326.7 503.14L326.47 502.94L326.23 502.74L326 502.53L325.78 502.32L325.56 502.1L325.34 501.89L325.12 501.66L324.91 501.44L324.7 501.21L324.5 500.97L324.3 500.73L324.1 500.49L323.9 500.25L323.71 500L323.53 499.75L323.34 499.5L323.16 499.24L322.99 498.98L322.81 498.72L322.64 498.45L322.48 498.18L322.32 497.91L322.16 497.63L322 497.35L321.85 497.07L321.71 496.78L321.56 496.49L321.42 496.2L321.28 495.9L321.15 495.6L321.02 495.3L320.9 495L320.77 494.69L320.66 494.39L320.56 494.08L320.46 493.78L320.36 493.47L320.27 493.16L320.18 492.84L320.1 492.53L320.02 492.21L319.94 491.89L319.87 491.57L319.81 491.24L319.75 490.92L319.69 490.59L319.64 490.26L319.59 489.92L319.55 489.59L319.52 489.25L319.48 488.92L319.46 488.58L319.43 488.24L319.42 487.89L319.4 487.55L319.4 487.2L319.39 486.85L319.4 486.5L319.4 486.16L319.42 485.81L319.43 485.47L319.46 485.13L319.48 484.79L319.52 484.45L319.55 484.11L319.59 483.78L319.64 483.45L319.69 483.12L319.75 482.79L319.81 482.46L319.87 482.14L319.94 481.82L320.02 481.5L320.1 481.18L320.18 480.86L320.27 480.55L320.36 480.24L320.46 479.93L320.56 479.62L320.66 479.32L320.77 479.02L320.9 478.71L321.02 478.4L321.15 478.1L321.28 477.81L321.42 477.51L321.56 477.23L321.71 476.94L321.85 476.66L322 476.38L322.16 476.11L322.32 475.84L322.48 475.57L322.64 475.31L322.81 475.05L322.99 474.8L323.16 474.54L323.34 474.3L323.53 474.05L323.71 473.81L323.9 473.57L324.1 473.34L324.3 473.11L324.5 472.88L324.7 472.65L324.91 472.42L325.12 472.2L325.34 471.97L325.56 471.76L325.78 471.54L326 471.33L326.23 471.13L326.47 470.92L326.7 470.73L326.94 470.53L327.18 470.35L327.42 470.16L327.67 469.98L327.92 469.81L328.17 469.64L328.43 469.47L328.69 469.31L328.95 469.15L329.21 469L329.48 468.85L329.74 468.71L330.01 468.57L330.29 468.44L330.56 468.31L330.84 468.18L331.12 468.05L331.4 467.93L331.68 467.81L331.96 467.7L332.25 467.6L332.54 467.5L332.83 467.4L333.12 467.32L333.41 467.23L333.71 467.16L334.01 467.09L334.3 467.02L334.6 466.96L334.9 466.91L335.21 466.86L335.51 466.82L335.81 466.78L336.12 466.75L336.43 466.73L336.73 466.71L337.04 466.69L337.35 466.68L337.66 466.68L337.98 466.68L338.29 466.69L338.29 466.69L338.61 466.71ZM215.47 466.62L215.7 466.63L215.93 466.65L216.17 466.67L216.4 466.69L216.63 466.72L216.86 466.75L217.09 466.78L217.32 466.82L217.55 466.86L217.78 466.9L218.01 466.95L218.24 467L218.47 467.05L218.7 467.11L218.93 467.17L219.16 467.24L219.38 467.3L219.61 467.37L219.84 467.45L220.07 467.53L220.3 467.61L220.52 467.69L220.75 467.78L220.98 467.87L221.21 467.96L221.43 468.05L221.66 468.15L221.89 468.25L222.11 468.35L222.34 468.45L222.56 468.56L222.78 468.66L223 468.78L223.22 468.89L223.44 469.01L223.65 469.14L223.86 469.27L224.08 469.4L224.29 469.53L224.5 469.67L224.7 469.81L224.91 469.96L225.11 470.11L225.32 470.26L225.52 470.42L225.72 470.58L225.91 470.74L226.11 470.91L226.3 471.08L226.5 471.25L226.69 471.43L226.88 471.61L227.06 471.8L227.25 471.99L227.43 472.18L227.61 472.38L227.8 472.58L230.35 475.37L210.01 497.79L210.22 497.91L210.43 498.01L210.64 498.12L210.85 498.22L211.06 498.31L211.27 498.4L211.48 498.48L211.7 498.56L211.91 498.63L212.12 498.7L212.34 498.76L212.56 498.82L212.77 498.87L212.99 498.91L213.21 498.96L213.43 498.99L213.65 499.02L213.87 499.05L214.09 499.07L214.31 499.08L214.53 499.09L214.76 499.1L214.98 499.1L215.2 499.09L215.43 499.08L215.65 499.07L215.88 499.05L216.11 499.02L216.33 498.99L216.56 498.96L216.79 498.91L217.02 498.87L217.25 498.82L217.48 498.76L217.7 498.7L217.93 498.63L218.15 498.56L218.36 498.48L218.58 498.4L218.79 498.31L219.01 498.22L219.22 498.12L219.42 498.01L219.63 497.91L219.83 497.79L220.04 497.67L220.24 497.55L220.44 497.42L220.63 497.28L220.83 497.14L221.02 497L221.21 496.85L221.4 496.69L221.59 496.53L221.78 496.37L221.97 496.2L222.15 496.02L222.33 495.84L222.51 495.66L222.69 495.46L225.11 492.67L230.28 498.33L227.73 501.13L227.55 501.32L227.38 501.51L227.2 501.7L227.02 501.88L226.84 502.06L226.66 502.24L226.48 502.41L226.29 502.58L226.1 502.75L225.91 502.91L225.72 503.07L225.53 503.23L225.34 503.39L225.14 503.54L224.94 503.69L224.74 503.83L224.54 503.98L224.34 504.12L224.14 504.25L223.93 504.39L223.73 504.52L223.52 504.64L223.31 504.77L223.1 504.89L222.88 505.01L222.67 505.12L222.45 505.23L222.24 505.34L222.02 505.45L221.8 505.55L221.58 505.65L221.36 505.75L221.13 505.84L220.91 505.93L220.68 506.02L220.46 506.1L220.23 506.18L220 506.26L219.78 506.33L219.55 506.4L219.32 506.47L219.09 506.53L218.85 506.59L218.62 506.65L218.39 506.7L218.15 506.75L217.92 506.8L217.68 506.85L217.44 506.89L217.2 506.92L216.96 506.96L216.72 506.99L216.48 507.01L216.24 507.04L216 507.06L215.75 507.07L215.51 507.09L215.26 507.09L215.02 507.1L214.77 507.1L214.52 507.1L214.27 507.09L214.03 507.09L213.79 507.07L213.54 507.06L213.3 507.04L213.06 507.01L212.82 506.99L212.59 506.96L212.35 506.92L212.11 506.89L211.88 506.85L211.64 506.8L211.41 506.75L211.18 506.7L210.94 506.65L210.71 506.59L210.48 506.53L210.25 506.47L210.02 506.4L209.79 506.33L209.56 506.26L209.33 506.18L209.1 506.1L208.88 506.02L208.65 505.93L208.42 505.84L208.19 505.75L207.97 505.65L207.74 505.55L207.52 505.45L207.3 505.34L207.08 505.23L206.87 505.12L206.65 505.01L206.44 504.89L206.23 504.77L206.02 504.64L205.81 504.52L205.6 504.39L205.4 504.25L205.19 504.12L204.99 503.98L204.79 503.83L204.59 503.69L204.39 503.54L204.19 503.39L203.99 503.23L203.8 503.07L203.6 502.91L203.41 502.75L203.22 502.58L203.03 502.41L202.84 502.24L202.66 502.06L202.47 501.88L202.29 501.7L202.1 501.51L201.92 501.32L201.74 501.13L201.56 500.93L201.39 500.74L201.22 500.54L201.05 500.34L200.89 500.13L200.72 499.93L200.57 499.72L200.41 499.51L200.26 499.3L200.11 499.09L199.96 498.87L199.82 498.66L199.68 498.44L199.54 498.22L199.41 498L199.28 497.77L199.15 497.55L199.02 497.32L198.9 497.09L198.78 496.86L198.66 496.62L198.55 496.39L198.44 496.15L198.33 495.92L198.23 495.68L198.12 495.44L198.03 495.19L197.93 494.95L197.84 494.7L197.74 494.46L197.66 494.21L197.57 493.96L197.49 493.71L197.41 493.46L197.34 493.21L197.26 492.96L197.2 492.7L197.13 492.45L197.07 492.2L197.01 491.95L196.95 491.69L196.9 491.44L196.85 491.18L196.8 490.93L196.75 490.67L196.71 490.42L196.67 490.16L196.64 489.9L196.61 489.64L196.58 489.39L196.55 489.13L196.52 488.87L196.5 488.61L196.48 488.35L196.47 488.09L196.46 487.83L196.45 487.56L196.44 487.3L196.44 487.04L196.43 486.77L196.44 486.52L196.44 486.26L196.45 486.01L196.46 485.75L196.47 485.5L196.48 485.24L196.5 484.98L196.52 484.73L196.55 484.47L196.58 484.22L196.61 483.97L196.64 483.71L196.67 483.46L196.71 483.21L196.75 482.95L196.8 482.7L196.85 482.45L196.9 482.2L196.95 481.95L197.01 481.7L197.07 481.45L197.13 481.2L197.2 480.96L197.26 480.71L197.34 480.46L197.41 480.22L197.49 479.97L197.57 479.73L197.66 479.49L197.74 479.25L197.84 479L197.93 478.76L198.03 478.51L198.12 478.27L198.23 478.03L198.33 477.8L198.44 477.56L198.55 477.33L198.66 477.09L198.78 476.86L198.9 476.64L199.02 476.41L199.15 476.18L199.28 475.96L199.41 475.74L199.54 475.52L199.68 475.3L199.82 475.08L199.96 474.87L200.11 474.65L200.26 474.44L200.41 474.23L200.57 474.02L200.72 473.81L200.89 473.6L201.05 473.39L201.22 473.19L201.39 472.98L201.56 472.78L201.74 472.58L201.92 472.38L202.1 472.19L202.29 472.01L202.47 471.82L202.66 471.64L202.84 471.46L203.03 471.29L203.22 471.11L203.41 470.94L203.61 470.77L203.8 470.61L204 470.45L204.19 470.29L204.39 470.14L204.59 469.99L204.8 469.84L205 469.7L205.21 469.55L205.41 469.42L205.62 469.28L205.83 469.15L206.05 469.03L206.26 468.9L206.48 468.79L206.69 468.67L206.91 468.56L207.13 468.45L207.36 468.35L207.58 468.25L207.81 468.15L208.03 468.05L208.26 467.96L208.49 467.87L208.72 467.78L208.95 467.69L209.18 467.61L209.41 467.53L209.64 467.45L209.87 467.37L210.1 467.3L210.33 467.24L210.57 467.17L210.8 467.11L211.03 467.05L211.26 467L211.49 466.95L211.73 466.9L211.96 466.86L212.19 466.82L212.43 466.78L212.66 466.75L212.9 466.72L213.13 466.69L213.36 466.67L213.6 466.65L213.83 466.63L214.07 466.62L214.3 466.61L214.53 466.6L214.77 466.6L215 466.6L215.24 466.61L215.24 466.61L215.47 466.62ZM482.46 487.22L482.46 487.48L482.45 487.73L482.43 487.99L482.42 488.24L482.4 488.5L482.38 488.75L482.35 489L482.33 489.25L482.3 489.5L482.26 489.75L482.23 490L482.19 490.24L482.15 490.49L482.11 490.73L482.06 490.97L482.01 491.22L481.96 491.46L481.9 491.7L481.84 491.94L481.78 492.18L481.72 492.42L481.65 492.65L481.58 492.89L481.51 493.13L481.44 493.36L481.36 493.6L481.28 493.83L481.2 494.07L481.11 494.3L481.02 494.53L480.94 494.76L480.85 494.98L480.76 495.21L480.67 495.43L480.57 495.65L480.47 495.87L480.37 496.09L480.27 496.3L480.17 496.52L480.06 496.74L479.95 496.95L479.84 497.16L479.72 497.37L479.61 497.58L479.49 497.79L479.37 498L479.24 498.2L479.12 498.4L478.99 498.6L478.86 498.8L478.72 499L478.59 499.2L478.45 499.39L478.31 499.58L478.16 499.77L478.02 499.96L477.87 500.15L477.72 500.33L477.57 500.52L477.41 500.7L477.25 500.87L477.09 501.05L476.94 501.22L476.78 501.39L476.62 501.56L476.46 501.73L476.3 501.89L476.13 502.06L475.97 502.22L475.8 502.37L475.63 502.53L475.46 502.68L475.29 502.83L475.11 502.98L474.94 503.13L474.76 503.27L474.58 503.41L474.4 503.55L474.22 503.69L474.04 503.82L473.85 503.96L473.67 504.09L473.48 504.21L473.29 504.34L473.1 504.46L472.9 504.58L472.71 504.7L472.51 504.82L472.32 504.93L472.12 505.05L471.92 505.16L471.71 505.26L471.51 505.37L471.3 505.47L471.09 505.57L470.89 505.66L470.68 505.74L470.47 505.83L470.25 505.91L470.04 505.99L469.83 506.07L469.61 506.14L469.4 506.21L469.18 506.28L468.96 506.34L468.74 506.41L468.52 506.47L468.3 506.52L468.08 506.58L467.86 506.63L467.63 506.67L467.41 506.72L467.18 506.76L466.96 506.8L466.73 506.83L466.5 506.87L466.28 506.9L466.05 506.92L465.82 506.95L465.59 506.97L465.36 506.98L465.13 507L464.9 507.01L464.67 507.02L464.44 507.02L464.2 507.02L463.97 507.02L463.74 507.02L463.51 507.01L463.28 507L463.05 506.98L462.82 506.97L462.59 506.95L462.36 506.92L462.13 506.9L461.9 506.87L461.67 506.83L461.45 506.8L461.22 506.76L461 506.72L460.77 506.67L460.55 506.63L460.33 506.58L460.11 506.52L459.89 506.47L459.67 506.41L459.45 506.34L459.23 506.28L459.01 506.21L458.79 506.14L458.58 506.07L458.37 505.99L458.15 505.91L457.94 505.83L457.73 505.74L457.52 505.66L457.31 505.57L457.1 505.47L456.9 505.37L456.69 505.26L456.49 505.16L456.29 505.05L456.09 504.93L455.89 504.82L455.69 504.7L455.49 504.58L455.3 504.46L455.1 504.34L454.91 504.21L454.72 504.09L454.53 503.96L454.34 503.82L454.15 503.69L453.97 503.55L453.78 503.41L453.6 503.27L453.42 503.13L453.24 502.98L453.07 502.83L452.89 502.68L452.72 502.53L452.55 502.37L452.38 502.22L452.21 502.06L452.05 501.89L451.88 501.73L451.72 501.56L451.56 501.39L451.4 501.22L451.25 501.05L451.09 500.87L450.94 500.7L450.79 500.52L450.64 500.34L450.49 500.15L450.34 499.97L450.2 499.78L450.06 499.6L449.92 499.41L449.78 499.21L449.64 499.02L449.51 498.82L449.38 498.63L449.24 498.43L449.12 498.23L448.99 498.02L448.86 497.82L448.74 497.61L448.62 497.41L448.5 497.2L448.38 496.98L448.27 496.77L448.16 496.55L448.05 496.34L447.94 496.12L447.83 495.9L447.73 495.67L447.63 495.45L447.53 495.22L447.43 494.99L447.34 494.76L447.25 494.53L447.17 494.3L447.08 494.07L447.01 493.83L446.93 493.6L446.86 493.36L446.79 493.13L446.72 492.89L446.65 492.65L446.59 492.42L446.53 492.18L446.47 491.94L446.42 491.7L446.37 491.46L446.32 491.22L446.27 490.97L446.22 490.73L446.18 490.49L446.14 490.24L446.1 490L446.07 489.75L446.04 489.5L446.01 489.25L445.98 489L445.96 488.75L445.94 488.5L445.92 488.24L445.9 487.99L445.89 487.73L445.88 487.48L445.87 487.22L445.87 486.96L445.87 486.7L445.87 486.44L445.87 486.17L445.88 485.92L445.89 485.66L445.9 485.4L445.92 485.14L445.94 484.89L445.96 484.63L445.98 484.38L446.01 484.13L446.04 483.87L446.07 483.62L446.1 483.37L446.14 483.13L446.18 482.88L446.22 482.63L446.27 482.39L446.32 482.14L446.37 481.9L446.42 481.66L446.47 481.42L446.53 481.18L446.59 480.94L446.65 480.71L446.72 480.47L446.79 480.24L446.86 480L446.93 479.77L447.01 479.54L447.08 479.31L447.17 479.09L447.25 478.86L447.34 478.63L447.43 478.4L447.53 478.17L447.63 477.95L447.73 477.73L447.83 477.5L447.94 477.29L448.05 477.07L448.16 476.86L448.27 476.64L448.38 476.43L448.5 476.23L448.62 476.02L448.74 475.82L448.86 475.62L448.99 475.42L449.12 475.22L449.24 475.03L449.38 474.83L449.51 474.64L449.64 474.45L449.78 474.27L449.92 474.08L450.06 473.9L450.2 473.72L450.34 473.54L450.49 473.36L450.64 473.18L450.79 473.01L450.94 472.84L451.09 472.67L451.25 472.5L451.41 472.33L451.57 472.16L451.74 471.99L451.9 471.82L452.07 471.66L452.24 471.5L452.41 471.34L452.58 471.19L452.75 471.03L452.92 470.88L453.1 470.74L453.27 470.59L453.45 470.45L453.63 470.31L453.81 470.17L453.99 470.04L454.18 469.9L454.36 469.77L454.55 469.64L454.74 469.52L454.92 469.39L455.11 469.27L455.31 469.15L455.5 469.03L455.7 468.91L455.89 468.8L456.09 468.69L456.29 468.58L456.49 468.47L456.69 468.36L456.9 468.26L457.1 468.15L457.31 468.05L457.52 467.96L457.73 467.86L457.94 467.77L458.15 467.68L458.37 467.6L458.58 467.52L458.79 467.44L459.01 467.37L459.23 467.29L459.45 467.23L459.67 467.16L459.89 467.1L460.11 467.04L460.33 466.98L460.55 466.93L460.77 466.88L461 466.84L461.22 466.79L461.45 466.75L461.67 466.72L461.9 466.68L462.13 466.65L462.36 466.63L462.59 466.6L462.82 466.58L463.05 466.56L463.28 466.55L463.51 466.54L463.74 466.53L463.97 466.53L464.2 466.52L475.23 466.52L475.23 450.31L482.47 450.31L482.47 486.7L482.47 486.96L482.47 486.96L482.46 487.22ZM298.99 466.54L299.2 466.55L299.4 466.56L299.61 466.58L299.81 466.59L300.02 466.61L300.22 466.64L300.42 466.66L300.63 466.69L300.83 466.72L301.03 466.76L301.24 466.8L301.44 466.84L301.64 466.88L301.84 466.92L302.05 466.97L302.25 467.02L302.45 467.07L302.65 467.13L302.85 467.19L303.06 467.25L303.26 467.31L303.46 467.37L303.66 467.44L303.86 467.51L304.06 467.59L304.26 467.66L304.46 467.74L304.66 467.82L304.86 467.9L305.06 467.99L305.27 468.08L305.47 468.17L305.66 468.26L305.86 468.35L306.06 468.45L306.26 468.55L306.45 468.65L306.64 468.76L306.84 468.87L307.03 468.98L307.22 469.09L307.41 469.2L307.59 469.32L307.78 469.44L307.96 469.56L308.15 469.68L308.33 469.81L308.51 469.94L308.69 470.07L308.87 470.2L309.05 470.34L309.23 470.48L309.4 470.62L309.58 470.76L309.75 470.91L309.92 471.06L310.09 471.21L310.26 471.36L310.43 471.52L310.59 471.67L310.76 471.83L310.92 472L311.08 472.16L311.24 472.33L311.4 472.5L313.88 475.29L308.85 480.96L306.23 478.16L306.13 478.05L306.03 477.95L305.94 477.84L305.84 477.74L305.73 477.64L305.63 477.54L305.53 477.44L305.43 477.35L305.33 477.26L305.22 477.16L305.12 477.07L305.01 476.99L304.91 476.9L304.8 476.82L304.7 476.73L304.59 476.65L304.48 476.57L304.37 476.49L304.26 476.42L304.15 476.34L304.05 476.27L303.93 476.2L303.82 476.13L303.71 476.06L303.6 475.99L303.49 475.93L303.38 475.86L303.26 475.8L303.15 475.74L303.04 475.68L302.92 475.62L302.81 475.56L302.69 475.5L302.58 475.45L302.46 475.39L302.33 475.34L302.21 475.29L302.09 475.24L301.97 475.19L301.85 475.15L301.73 475.1L301.6 475.06L301.48 475.02L301.36 474.98L301.24 474.94L301.12 474.91L301 474.87L300.87 474.84L300.75 474.81L300.63 474.78L300.51 474.75L300.39 474.72L300.27 474.7L300.14 474.67L300.02 474.65L299.9 474.63L299.78 474.61L299.66 474.6L299.54 474.58L299.41 474.57L299.29 474.56L299.17 474.55L299.05 474.54L298.93 474.53L298.81 474.52L298.69 474.52L298.56 474.52L298.44 474.52L298.32 474.52L298.2 474.52L298.08 474.52L297.95 474.53L297.83 474.54L297.71 474.55L297.58 474.56L297.46 474.57L297.34 474.58L297.21 474.6L297.09 474.61L296.97 474.63L296.84 474.65L296.72 474.67L296.59 474.7L296.47 474.72L296.35 474.75L296.23 474.78L296.1 474.81L295.98 474.84L295.86 474.87L295.74 474.91L295.61 474.94L295.49 474.98L295.37 475.02L295.25 475.06L295.13 475.1L295.01 475.15L294.89 475.19L294.77 475.24L294.66 475.29L294.54 475.34L294.42 475.39L294.31 475.45L294.19 475.5L294.07 475.56L293.95 475.62L293.83 475.68L293.71 475.74L293.6 475.8L293.48 475.86L293.37 475.93L293.25 475.99L293.14 476.06L293.03 476.13L292.92 476.2L292.81 476.27L292.7 476.34L292.59 476.42L292.48 476.49L292.38 476.57L292.27 476.65L292.17 476.73L292.06 476.82L291.96 476.9L291.85 476.99L291.75 477.07L291.65 477.16L291.55 477.26L291.45 477.35L291.34 477.44L291.24 477.54L291.14 477.64L291.05 477.74L290.95 477.84L290.85 477.95L290.75 478.05L290.65 478.16L290.56 478.27L290.46 478.37L290.37 478.47L290.28 478.58L290.18 478.69L290.1 478.79L290.01 478.9L289.92 479.01L289.84 479.12L289.75 479.23L289.67 479.34L289.59 479.45L289.51 479.57L289.44 479.68L289.36 479.79L289.29 479.91L289.21 480.02L289.14 480.14L289.07 480.26L289.01 480.38L288.94 480.5L288.88 480.62L288.82 480.74L288.75 480.86L288.7 480.98L288.64 481.1L288.58 481.23L288.53 481.35L288.48 481.48L288.43 481.61L288.38 481.73L288.33 481.86L288.28 481.99L288.24 482.12L288.19 482.25L288.15 482.38L288.1 482.51L288.06 482.64L288.02 482.77L287.97 482.91L287.94 483.04L287.9 483.17L287.86 483.3L287.83 483.44L287.79 483.57L287.76 483.71L287.73 483.84L287.7 483.97L287.67 484.11L287.65 484.24L287.62 484.38L287.6 484.51L287.57 484.65L287.55 484.79L287.53 484.92L287.52 485.06L287.5 485.19L287.49 485.33L287.47 485.47L287.46 485.6L287.45 485.74L287.44 485.88L287.43 486.01L287.43 486.15L287.42 486.29L287.42 486.42L287.41 486.56L287.41 486.7L287.41 486.83L287.42 486.97L287.42 487.11L287.43 487.24L287.43 487.38L287.44 487.52L287.45 487.65L287.46 487.79L287.47 487.93L287.49 488.06L287.5 488.2L287.52 488.34L287.53 488.47L287.55 488.61L287.57 488.74L287.6 488.88L287.62 489.01L287.65 489.15L287.67 489.28L287.7 489.42L287.73 489.55L287.76 489.69L287.79 489.82L287.83 489.96L287.86 490.09L287.9 490.22L287.94 490.35L287.97 490.49L288.02 490.62L288.06 490.75L288.1 490.88L288.15 491.01L288.19 491.14L288.24 491.27L288.29 491.4L288.34 491.53L288.39 491.66L288.45 491.79L288.5 491.92L288.56 492.05L288.62 492.17L288.68 492.3L288.74 492.43L288.8 492.55L288.86 492.68L288.92 492.8L288.99 492.92L289.06 493.05L289.13 493.17L289.2 493.29L289.27 493.41L289.34 493.53L289.41 493.65L289.49 493.76L289.56 493.88L289.64 494L289.72 494.11L289.8 494.23L289.88 494.34L289.96 494.45L290.04 494.56L290.13 494.67L290.21 494.78L290.3 494.89L290.38 495L290.47 495.1L290.56 495.21L290.65 495.31L290.85 495.52L291.05 495.72L291.25 495.92L291.45 496.11L291.65 496.29L291.86 496.47L292.07 496.64L292.28 496.8L292.49 496.96L292.71 497.11L292.92 497.26L293.14 497.39L293.36 497.53L293.59 497.65L293.81 497.77L294.04 497.89L294.27 498L294.5 498.1L294.74 498.19L294.97 498.28L295.21 498.36L295.45 498.44L295.7 498.51L295.94 498.57L296.19 498.63L296.44 498.68L296.69 498.73L296.94 498.77L297.2 498.8L297.46 498.83L297.72 498.85L297.98 498.87L298.24 498.87L298.51 498.88L298.64 498.88L298.77 498.87L298.89 498.87L299.02 498.86L299.15 498.86L299.28 498.85L299.4 498.84L299.53 498.83L299.66 498.81L299.79 498.8L299.91 498.78L300.04 498.76L300.17 498.74L300.29 498.72L300.42 498.7L300.55 498.67L300.67 498.64L300.8 498.62L300.93 498.59L301.05 498.56L301.18 498.52L301.3 498.49L301.43 498.45L301.55 498.41L301.68 498.37L301.8 498.33L301.92 498.29L302.05 498.25L302.17 498.2L302.29 498.15L302.42 498.1L302.54 498.05L302.66 498L302.78 497.95L302.91 497.89L303.03 497.83L303.14 497.78L303.26 497.72L303.38 497.66L303.49 497.6L303.61 497.53L303.72 497.47L303.84 497.4L303.95 497.33L304.06 497.27L304.17 497.2L304.28 497.12L304.39 497.05L304.49 496.98L304.6 496.9L304.71 496.82L304.81 496.74L304.91 496.66L305.02 496.58L305.12 496.49L305.22 496.41L305.32 496.32L305.42 496.23L305.52 496.14L305.61 496.05L305.71 495.95L305.81 495.85L305.9 495.75L306 495.65L306.09 495.55L306.18 495.45L306.28 495.34L306.37 495.23L308.99 492.44L313.88 498.26L311.33 501.05L311.17 501.22L311.01 501.39L310.85 501.55L310.69 501.72L310.52 501.88L310.36 502.04L310.19 502.2L310.02 502.35L309.85 502.51L309.68 502.66L309.51 502.81L309.33 502.95L309.16 503.1L308.98 503.24L308.8 503.38L308.62 503.51L308.44 503.65L308.26 503.78L308.08 503.91L307.9 504.04L307.71 504.16L307.52 504.29L307.34 504.41L307.15 504.52L306.96 504.64L306.77 504.75L306.57 504.86L306.38 504.97L306.19 505.07L305.99 505.17L305.79 505.27L305.6 505.37L305.4 505.46L305.2 505.55L305 505.63L304.81 505.71L304.61 505.79L304.41 505.86L304.21 505.94L304.02 506.01L303.82 506.07L303.62 506.14L303.42 506.2L303.22 506.27L303.02 506.33L302.82 506.38L302.61 506.44L302.41 506.49L302.21 506.54L302.01 506.59L301.8 506.64L301.6 506.68L301.39 506.72L301.19 506.76L300.98 506.79L300.78 506.83L300.57 506.86L300.37 506.89L300.16 506.91L299.96 506.94L299.75 506.96L299.54 506.97L299.34 506.99L299.13 507L298.92 507.01L298.72 507.02L298.51 507.02L298.3 507.02L298.1 507.02L297.89 507.02L297.68 507.01L297.48 507L297.27 506.99L297.06 506.98L296.86 506.96L296.65 506.95L296.44 506.92L296.24 506.9L296.03 506.88L295.83 506.85L295.62 506.82L295.41 506.78L295.21 506.75L295 506.71L294.8 506.67L294.59 506.62L294.39 506.57L294.18 506.53L293.98 506.47L293.77 506.42L293.57 506.36L293.37 506.3L293.16 506.24L292.96 506.17L292.76 506.1L292.55 506.03L292.35 505.96L292.15 505.88L291.95 505.8L291.74 505.72L291.54 505.64L291.34 505.55L291.15 505.46L290.95 505.37L290.76 505.27L290.57 505.17L290.38 505.07L290.19 504.97L290 504.86L289.81 504.75L289.62 504.64L289.44 504.52L289.25 504.41L289.06 504.29L288.88 504.16L288.7 504.04L288.52 503.91L288.33 503.78L288.15 503.65L287.98 503.51L287.8 503.38L287.62 503.24L287.45 503.1L287.27 502.95L287.1 502.81L286.93 502.66L286.76 502.51L286.59 502.35L286.42 502.2L286.25 502.04L286.09 501.88L285.92 501.72L285.76 501.55L285.6 501.39L285.44 501.22L285.28 501.05L285.12 500.87L284.97 500.69L284.81 500.51L284.66 500.33L284.52 500.15L284.37 499.97L284.23 499.78L284.09 499.6L283.95 499.41L283.82 499.23L283.69 499.04L283.56 498.85L283.43 498.66L283.3 498.47L283.18 498.28L283.06 498.08L282.94 497.89L282.83 497.69L282.71 497.5L282.6 497.3L282.49 497.1L282.39 496.9L282.28 496.7L282.18 496.49L282.08 496.29L281.98 496.08L281.89 495.87L281.79 495.66L281.7 495.45L281.61 495.24L281.53 495.03L281.44 494.81L281.36 494.6L281.28 494.38L281.2 494.16L281.13 493.94L281.05 493.72L280.98 493.5L280.92 493.28L280.85 493.06L280.79 492.84L280.73 492.62L280.67 492.4L280.61 492.19L280.56 491.97L280.51 491.75L280.46 491.53L280.41 491.31L280.37 491.09L280.33 490.86L280.29 490.64L280.25 490.42L280.22 490.2L280.19 489.98L280.16 489.76L280.13 489.54L280.1 489.32L280.08 489.09L280.06 488.87L280.04 488.65L280.02 488.42L280.01 488.2L280 487.98L279.99 487.75L279.98 487.53L279.97 487.3L279.97 487.08L279.97 486.85L279.97 486.62L279.97 486.39L279.98 486.16L279.99 485.92L280 485.69L280.01 485.46L280.02 485.23L280.04 485L280.06 484.77L280.08 484.54L280.1 484.32L280.13 484.09L280.16 483.86L280.19 483.63L280.22 483.41L280.25 483.18L280.29 482.95L280.33 482.73L280.37 482.5L280.41 482.28L280.46 482.05L280.51 481.83L280.56 481.61L280.61 481.38L280.67 481.16L280.73 480.94L280.79 480.71L280.85 480.49L280.92 480.27L280.98 480.05L281.05 479.83L281.13 479.61L281.2 479.39L281.28 479.17L281.37 478.95L281.45 478.74L281.54 478.52L281.63 478.3L281.73 478.09L281.82 477.88L281.92 477.67L282.02 477.46L282.12 477.25L282.22 477.04L282.33 476.84L282.44 476.63L282.55 476.43L282.66 476.23L282.77 476.03L282.89 475.83L283 475.63L283.12 475.44L283.24 475.24L283.37 475.05L283.49 474.86L283.62 474.67L283.75 474.48L283.89 474.29L284.02 474.1L284.16 473.92L284.3 473.74L284.44 473.55L284.59 473.37L284.73 473.2L284.88 473.02L285.04 472.84L285.19 472.67L285.35 472.5L285.5 472.33L285.66 472.16L285.83 472L285.99 471.83L286.15 471.67L286.31 471.52L286.48 471.36L286.65 471.21L286.81 471.06L286.98 470.91L287.15 470.76L287.32 470.62L287.5 470.48L287.67 470.34L287.84 470.2L288.02 470.07L288.2 469.94L288.38 469.81L288.56 469.68L288.74 469.56L288.92 469.44L289.1 469.32L289.29 469.2L289.47 469.09L289.66 468.98L289.85 468.87L290.04 468.76L290.23 468.65L290.43 468.55L290.62 468.45L290.82 468.35L291.01 468.26L291.21 468.17L291.41 468.08L291.61 467.99L291.81 467.9L292.02 467.82L292.22 467.74L292.42 467.66L292.62 467.59L292.82 467.51L293.03 467.44L293.23 467.37L293.43 467.31L293.64 467.25L293.84 467.19L294.05 467.13L294.25 467.07L294.46 467.02L294.66 466.97L294.87 466.92L295.07 466.88L295.28 466.84L295.48 466.8L295.69 466.76L295.89 466.72L296.1 466.69L296.31 466.66L296.51 466.64L296.72 466.61L296.93 466.59L297.13 466.58L297.34 466.56L297.55 466.55L297.75 466.54L297.96 466.53L298.17 466.53L298.37 466.53L298.58 466.53L298.79 466.53L298.79 466.53L298.99 466.54ZM255.62 466.61L255.82 466.62L256.02 466.63L256.21 466.64L256.41 466.66L256.6 466.67L256.8 466.69L256.99 466.72L257.18 466.74L257.38 466.76L257.57 466.79L257.76 466.82L257.95 466.86L258.14 466.89L258.32 466.93L258.51 466.97L258.7 467.01L258.88 467.05L259.07 467.1L259.25 467.15L259.44 467.2L259.62 467.25L259.8 467.31L259.99 467.37L260.17 467.42L260.35 467.49L260.53 467.55L260.71 467.62L260.89 467.69L261.06 467.76L261.24 467.83L261.42 467.91L261.59 467.98L261.77 468.06L261.94 468.15L262.12 468.23L262.29 468.31L262.47 468.39L262.64 468.48L262.81 468.57L262.98 468.65L263.15 468.74L263.32 468.84L263.48 468.93L263.65 469.03L263.81 469.12L263.98 469.22L264.14 469.32L264.3 469.43L264.47 469.53L264.63 469.64L264.78 469.75L264.94 469.86L265.1 469.97L265.26 470.08L265.41 470.2L265.56 470.32L265.72 470.44L265.87 470.56L266.02 470.68L266.16 470.8L266.31 470.93L266.46 471.06L266.6 471.19L266.75 471.32L266.89 471.45L267.03 471.59L267.17 471.72L267.31 471.86L267.44 472L267.58 472.14L267.71 472.29L267.85 472.43L267.98 472.58L268.11 472.72L268.25 472.86L268.38 473.01L268.51 473.15L268.63 473.3L268.76 473.45L268.88 473.6L269 473.75L269.12 473.91L269.24 474.06L269.36 474.22L269.47 474.38L269.58 474.54L269.7 474.7L269.81 474.86L269.91 475.03L270.02 475.19L270.12 475.36L270.23 475.52L270.33 475.69L270.43 475.86L270.53 476.04L270.62 476.21L270.72 476.38L270.81 476.56L270.9 476.73L270.99 476.91L271.08 477.09L271.17 477.27L271.26 477.45L271.34 477.63L271.43 477.82L271.51 478L271.59 478.19L271.67 478.37L271.75 478.56L271.83 478.75L271.91 478.94L271.98 479.13L272.05 479.32L272.13 479.51L272.19 479.71L272.26 479.9L272.33 480.09L272.39 480.29L272.45 480.49L272.51 480.69L272.57 480.88L272.62 481.08L272.68 481.28L272.73 481.49L272.78 481.69L272.82 481.89L272.87 482.09L272.91 482.3L272.95 482.5L272.99 482.71L273.03 482.92L273.06 483.13L273.1 483.33L273.13 483.54L273.16 483.75L273.18 483.97L273.21 484.18L273.23 484.39L273.25 484.6L273.27 484.82L273.29 485.03L273.3 485.25L273.32 485.46L273.33 485.68L273.34 485.9L273.34 486.12L273.35 486.33L273.35 486.55L273.35 486.77L273.35 507.02L266.12 507.02L266.12 486.77L266.12 486.64L266.11 486.51L266.11 486.37L266.11 486.24L266.1 486.11L266.1 485.98L266.09 485.85L266.08 485.72L266.07 485.59L266.06 485.46L266.05 485.33L266.03 485.2L266.02 485.08L266 484.95L265.98 484.83L265.96 484.7L265.94 484.58L265.92 484.45L265.9 484.33L265.88 484.21L265.85 484.09L265.83 483.97L265.8 483.85L265.77 483.73L265.74 483.61L265.71 483.49L265.67 483.37L265.64 483.25L265.6 483.14L265.57 483.02L265.53 482.91L265.49 482.79L265.45 482.68L265.41 482.57L265.36 482.45L265.32 482.34L265.27 482.23L265.22 482.12L265.18 482L265.13 481.89L265.09 481.77L265.04 481.66L264.99 481.55L264.94 481.43L264.89 481.32L264.84 481.21L264.79 481.1L264.74 480.99L264.69 480.88L264.63 480.77L264.58 480.66L264.52 480.56L264.47 480.45L264.41 480.35L264.35 480.24L264.29 480.14L264.23 480.03L264.17 479.93L264.11 479.83L264.04 479.73L263.98 479.63L263.91 479.53L263.84 479.43L263.78 479.34L263.71 479.24L263.64 479.14L263.57 479.05L263.49 478.96L263.42 478.86L263.35 478.77L263.27 478.68L263.19 478.59L263.12 478.5L263.04 478.41L262.96 478.33L262.88 478.24L262.8 478.15L262.72 478.06L262.64 477.97L262.57 477.88L262.49 477.8L262.4 477.71L262.32 477.63L262.24 477.55L262.16 477.46L262.07 477.38L261.99 477.31L261.9 477.23L261.81 477.15L261.73 477.08L261.64 477L261.55 476.93L261.46 476.86L261.37 476.79L261.27 476.72L261.18 476.65L261.09 476.58L260.99 476.52L260.9 476.45L260.8 476.39L260.7 476.32L260.61 476.26L260.51 476.2L260.41 476.14L260.31 476.08L260.21 476.03L260.1 475.97L260 475.91L259.9 475.86L259.79 475.81L259.68 475.75L259.58 475.7L259.47 475.65L259.36 475.6L259.26 475.55L259.15 475.51L259.05 475.46L258.94 475.41L258.83 475.37L258.73 475.33L258.62 475.28L258.51 475.24L258.4 475.2L258.29 475.16L258.18 475.13L258.07 475.09L257.95 475.05L257.84 475.02L257.73 474.99L257.61 474.95L257.5 474.92L257.38 474.89L257.27 474.87L257.15 474.84L257.04 474.81L256.92 474.79L256.8 474.77L256.69 474.74L256.57 474.72L256.45 474.7L256.33 474.69L256.21 474.67L256.09 474.66L255.98 474.64L255.86 474.63L255.74 474.62L255.62 474.61L255.5 474.61L255.38 474.6L255.26 474.6L255.14 474.59L255.02 474.59L254.9 474.59L254.78 474.6L254.66 474.6L254.54 474.6L254.42 474.61L254.31 474.62L254.19 474.63L254.07 474.64L253.95 474.65L253.84 474.66L253.72 474.67L253.6 474.69L253.49 474.71L253.37 474.72L253.26 474.74L253.14 474.76L253.03 474.79L252.91 474.81L252.8 474.84L252.68 474.86L252.57 474.89L252.46 474.92L252.34 474.95L252.23 474.98L252.12 475.02L252 475.05L251.89 475.09L251.78 475.13L251.67 475.17L251.56 475.21L251.45 475.26L251.34 475.3L251.23 475.35L251.12 475.39L251.01 475.44L250.9 475.5L250.79 475.55L250.68 475.6L250.57 475.65L250.47 475.7L250.37 475.75L250.27 475.81L250.17 475.86L250.07 475.91L249.97 475.97L249.87 476.03L249.77 476.08L249.67 476.14L249.58 476.2L249.48 476.26L249.38 476.32L249.29 476.39L249.19 476.45L249.1 476.52L249 476.58L248.91 476.65L248.82 476.72L248.72 476.79L248.63 476.86L248.54 476.93L248.45 477L248.36 477.08L248.27 477.15L248.18 477.23L248.1 477.31L248.01 477.38L247.92 477.46L247.83 477.55L247.75 477.63L247.66 477.71L247.58 477.8L247.49 477.88L247.41 477.97L247.33 478.06L247.24 478.15L247.16 478.24L247.09 478.33L247.01 478.41L246.94 478.5L246.86 478.59L246.79 478.68L246.72 478.77L246.64 478.86L246.57 478.95L246.5 479.04L246.43 479.13L246.36 479.23L246.29 479.32L246.23 479.42L246.16 479.51L246.09 479.61L246.03 479.71L245.96 479.8L245.9 479.9L245.84 480.01L245.77 480.11L245.71 480.21L245.65 480.31L245.59 480.42L245.53 480.52L245.48 480.63L245.42 480.74L245.36 480.85L245.31 480.96L245.26 481.07L245.2 481.18L245.15 481.29L245.1 481.41L245.05 481.52L245 481.64L244.95 481.76L244.91 481.88L244.86 482L244.82 482.12L244.78 482.24L244.73 482.35L244.69 482.47L244.65 482.59L244.62 482.71L244.58 482.82L244.54 482.94L244.51 483.06L244.47 483.18L244.44 483.3L244.41 483.42L244.38 483.54L244.35 483.66L244.32 483.78L244.3 483.9L244.27 484.02L244.24 484.14L244.22 484.27L244.2 484.39L244.18 484.51L244.16 484.63L244.14 484.76L244.12 484.88L244.1 485.01L244.09 485.13L244.07 485.25L244.06 485.38L244.05 485.5L244.04 485.63L244.03 485.76L244.02 485.88L244.01 486.01L244.01 486.14L244 486.26L244 486.39L243.99 486.52L243.99 486.65L243.99 486.77L243.99 507.02L236.76 507.02L236.76 486.77L236.78 486.49L236.81 486.21L236.83 485.94L236.86 485.66L236.89 485.4L236.92 485.13L236.95 484.88L236.98 484.62L237.01 484.37L237.04 484.13L237.07 483.88L237.1 483.65L237.13 483.41L237.17 483.18L237.2 482.96L237.23 482.74L237.27 482.52L237.3 482.31L237.34 482.1L237.38 481.9L237.41 481.7L237.45 481.5L237.49 481.31L237.53 481.12L237.57 480.94L237.61 480.76L237.65 480.58L237.69 480.41L237.73 480.25L237.77 480.09L237.82 479.93L237.86 479.77L237.9 479.62L237.95 479.48L237.99 479.34L238.04 479.2L238.09 479.07L238.13 478.94L238.21 478.74L238.29 478.55L238.37 478.36L238.45 478.17L238.53 477.98L238.62 477.79L238.7 477.61L238.79 477.42L238.88 477.24L238.97 477.06L239.06 476.88L239.15 476.7L239.24 476.52L239.34 476.35L239.44 476.17L239.54 476L239.64 475.83L239.74 475.66L239.84 475.5L239.94 475.33L240.05 475.16L240.16 475L240.26 474.84L240.37 474.68L240.49 474.52L240.6 474.36L240.71 474.21L240.83 474.05L240.94 473.9L241.06 473.75L241.18 473.59L241.3 473.45L241.43 473.3L241.55 473.15L241.68 473L241.8 472.86L241.93 472.72L242.06 472.58L242.19 472.43L242.33 472.29L242.46 472.14L242.6 472L242.73 471.86L242.87 471.72L243.01 471.59L243.15 471.45L243.29 471.32L243.44 471.19L243.58 471.06L243.73 470.93L243.88 470.8L244.02 470.68L244.17 470.56L244.32 470.44L244.48 470.32L244.63 470.2L244.78 470.08L244.94 469.97L245.1 469.86L245.26 469.75L245.41 469.64L245.57 469.53L245.74 469.43L245.9 469.32L246.06 469.22L246.22 469.12L246.39 469.03L246.56 468.93L246.72 468.84L246.89 468.74L247.06 468.65L247.23 468.57L247.4 468.48L247.57 468.39L247.75 468.31L247.92 468.23L248.1 468.15L248.27 468.06L248.45 467.98L248.62 467.91L248.8 467.83L248.98 467.76L249.16 467.69L249.34 467.62L249.52 467.55L249.7 467.49L249.88 467.42L250.07 467.37L250.25 467.31L250.44 467.25L250.62 467.2L250.81 467.15L250.99 467.1L251.18 467.05L251.37 467.01L251.55 466.97L251.74 466.93L251.93 466.89L252.12 466.86L252.31 466.82L252.5 466.79L252.69 466.76L252.89 466.74L253.08 466.72L253.27 466.69L253.46 466.67L253.66 466.66L253.85 466.64L254.04 466.63L254.24 466.62L254.43 466.61L254.63 466.61L254.82 466.6L255.02 466.6L255.22 466.6L255.42 466.61L255.42 466.61L255.62 466.61ZM411.55 486.97L411.55 487.1L411.55 487.23L411.56 487.36L411.57 487.49L411.57 487.63L411.58 487.76L411.59 487.89L411.6 488.01L411.61 488.14L411.63 488.27L411.64 488.4L411.66 488.53L411.67 488.66L411.69 488.78L411.71 488.91L411.73 489.03L411.75 489.16L411.77 489.29L411.8 489.41L411.82 489.54L411.85 489.66L411.88 489.78L411.9 489.91L411.93 490.03L411.96 490.16L411.99 490.28L412.03 490.4L412.06 490.53L412.1 490.65L412.13 490.77L412.17 490.89L412.21 491.02L412.25 491.14L412.29 491.26L412.33 491.38L412.37 491.51L412.42 491.62L412.47 491.74L412.52 491.85L412.57 491.97L412.62 492.08L412.68 492.19L412.73 492.31L412.78 492.42L412.84 492.53L412.89 492.64L412.95 492.75L413 492.86L413.06 492.97L413.12 493.07L413.18 493.18L413.23 493.29L413.29 493.39L413.35 493.5L413.41 493.6L413.48 493.71L413.54 493.81L413.6 493.91L413.67 494.01L413.73 494.11L413.8 494.22L413.86 494.31L413.93 494.41L414 494.51L414.06 494.61L414.13 494.71L414.2 494.81L414.27 494.9L414.35 495L414.42 495.09L414.49 495.19L414.57 495.28L414.64 495.37L414.72 495.46L414.8 495.55L414.88 495.63L414.96 495.72L415.05 495.8L415.13 495.88L415.22 495.96L415.3 496.04L415.39 496.12L415.47 496.2L415.56 496.27L415.65 496.35L415.74 496.43L415.83 496.5L415.91 496.57L416 496.65L416.1 496.72L416.19 496.79L416.28 496.86L416.37 496.93L416.46 497L416.56 497.06L416.65 497.13L416.74 497.2L416.84 497.26L416.94 497.33L417.03 497.39L417.13 497.45L417.23 497.52L417.32 497.58L417.42 497.64L417.52 497.7L417.62 497.76L417.72 497.82L417.82 497.88L417.92 497.93L418.03 497.99L418.13 498.05L418.23 498.1L418.34 498.15L418.45 498.2L418.56 498.24L418.67 498.29L418.78 498.33L418.89 498.37L419 498.41L419.11 498.45L419.22 498.49L419.33 498.53L419.45 498.56L419.56 498.6L419.67 498.63L419.78 498.66L419.9 498.69L420.01 498.72L420.12 498.75L420.24 498.77L420.35 498.8L420.46 498.82L420.58 498.85L420.69 498.87L420.81 498.89L420.93 498.91L421.04 498.92L421.16 498.94L421.27 498.95L421.39 498.97L421.51 498.98L421.62 498.99L421.74 499L421.86 499.01L421.98 499.02L422.1 499.02L422.22 499.03L422.33 499.03L422.45 499.03L422.57 499.03L422.69 499.03L422.81 499.03L422.93 499.03L423.05 499.02L423.17 499.02L423.29 499.01L423.4 499L423.52 498.99L423.64 498.98L423.76 498.97L423.87 498.95L423.99 498.94L424.11 498.92L424.22 498.91L424.34 498.89L424.45 498.87L424.57 498.85L424.68 498.82L424.8 498.8L424.91 498.77L425.02 498.75L425.14 498.72L425.25 498.69L425.36 498.66L425.48 498.63L425.59 498.6L425.7 498.56L425.81 498.53L425.92 498.49L426.04 498.45L426.15 498.41L426.26 498.37L426.37 498.33L426.48 498.29L426.59 498.24L426.7 498.2L426.81 498.15L426.92 498.1L427.02 498.05L427.13 497.99L427.24 497.93L427.34 497.88L427.45 497.82L427.55 497.76L427.66 497.7L427.76 497.64L427.86 497.58L427.96 497.52L428.06 497.45L428.16 497.39L428.26 497.33L428.35 497.26L428.45 497.2L428.55 497.13L428.64 497.06L428.74 497L428.83 496.93L428.92 496.86L429.01 496.79L429.1 496.72L429.19 496.65L429.28 496.57L429.37 496.5L429.45 496.43L429.54 496.35L429.63 496.27L429.71 496.2L429.79 496.12L429.88 496.04L429.96 495.96L430.04 495.88L430.12 495.8L430.2 495.72L430.28 495.63L430.35 495.55L430.43 495.46L430.51 495.37L430.59 495.28L430.67 495.19L430.75 495.09L430.82 495L430.9 494.9L430.97 494.81L431.05 494.71L431.12 494.61L431.19 494.51L431.26 494.41L431.33 494.31L431.4 494.22L431.46 494.11L431.53 494.01L431.59 493.91L431.66 493.81L431.72 493.71L431.78 493.6L431.84 493.5L431.9 493.39L431.96 493.29L432.02 493.18L432.08 493.07L432.13 492.97L432.19 492.86L432.24 492.75L432.29 492.64L432.35 492.53L432.4 492.42L432.45 492.31L432.5 492.19L432.55 492.08L432.59 491.97L432.64 491.85L432.69 491.74L432.73 491.62L432.77 491.51L432.82 491.39L432.86 491.27L432.9 491.16L432.94 491.04L432.98 490.92L433.02 490.8L433.06 490.68L433.09 490.56L433.13 490.43L433.16 490.31L433.2 490.19L433.23 490.07L433.26 489.94L433.29 489.82L433.32 489.69L433.35 489.57L433.38 489.44L433.4 489.32L433.43 489.19L433.45 489.06L433.48 488.93L433.5 488.81L433.52 488.68L433.54 488.55L433.55 488.42L433.57 488.29L433.59 488.16L433.6 488.03L433.61 487.9L433.63 487.76L433.64 487.63L433.64 487.5L433.65 487.37L433.66 487.23L433.66 487.1L433.67 486.97L433.67 486.83L433.67 486.7L433.67 466.52L440.91 466.52L440.91 486.7L440.91 486.92L440.9 487.14L440.9 487.35L440.89 487.57L440.88 487.79L440.87 488L440.86 488.22L440.84 488.43L440.83 488.64L440.81 488.86L440.79 489.07L440.76 489.28L440.74 489.49L440.71 489.7L440.68 489.91L440.65 490.11L440.62 490.32L440.58 490.53L440.55 490.73L440.51 490.94L440.46 491.14L440.42 491.34L440.38 491.55L440.33 491.75L440.28 491.95L440.23 492.15L440.18 492.35L440.12 492.55L440.06 492.75L440 492.95L439.94 493.15L439.88 493.35L439.82 493.55L439.75 493.75L439.68 493.94L439.61 494.14L439.53 494.34L439.46 494.53L439.39 494.73L439.31 494.92L439.24 495.12L439.16 495.31L439.08 495.5L439 495.69L438.92 495.87L438.84 496.06L438.75 496.24L438.67 496.43L438.58 496.61L438.49 496.79L438.39 496.97L438.3 497.15L438.21 497.33L438.11 497.5L438.01 497.68L437.91 497.85L437.81 498.02L437.7 498.2L437.6 498.36L437.49 498.53L437.38 498.7L437.27 498.87L437.15 499.03L437.04 499.19L436.92 499.35L436.81 499.52L436.69 499.67L436.56 499.83L436.44 499.99L436.32 500.14L436.19 500.3L436.06 500.45L435.93 500.6L435.8 500.75L435.67 500.9L435.53 501.05L435.39 501.2L435.26 501.34L435.12 501.48L434.98 501.63L434.84 501.76L434.7 501.9L434.56 502.04L434.41 502.17L434.27 502.31L434.13 502.44L433.98 502.57L433.83 502.7L433.69 502.82L433.54 502.95L433.39 503.07L433.24 503.2L433.09 503.32L432.94 503.43L432.78 503.55L432.63 503.67L432.47 503.78L432.32 503.89L432.16 504L432 504.11L431.84 504.22L431.68 504.33L431.52 504.43L431.36 504.53L431.19 504.64L431.03 504.73L430.86 504.83L430.7 504.93L430.53 505.02L430.36 505.12L430.19 505.21L430.02 505.3L429.85 505.39L429.67 505.47L429.5 505.55L429.32 505.63L429.15 505.7L428.97 505.78L428.79 505.85L428.62 505.92L428.44 505.98L428.26 506.05L428.08 506.11L427.9 506.17L427.72 506.23L427.54 506.29L427.36 506.34L427.18 506.39L426.99 506.44L426.81 506.49L426.62 506.54L426.44 506.58L426.25 506.63L426.07 506.67L425.88 506.7L425.69 506.74L425.5 506.77L425.31 506.81L425.12 506.84L424.93 506.86L424.74 506.89L424.54 506.91L424.35 506.93L424.16 506.95L423.96 506.97L423.77 506.98L423.57 507L423.37 507.01L423.17 507.01L422.97 507.02L422.77 507.02L422.57 507.02L422.38 507.02L422.18 507.02L421.99 507.01L421.79 507.01L421.6 507L421.4 506.98L421.21 506.97L421.02 506.95L420.82 506.93L420.63 506.91L420.44 506.89L420.25 506.86L420.06 506.84L419.87 506.81L419.68 506.77L419.49 506.74L419.3 506.7L419.11 506.67L418.92 506.63L418.73 506.58L418.55 506.54L418.36 506.49L418.17 506.44L417.99 506.39L417.8 506.34L417.62 506.29L417.44 506.23L417.26 506.17L417.07 506.11L416.89 506.05L416.71 505.98L416.53 505.92L416.36 505.85L416.18 505.78L416 505.7L415.82 505.63L415.65 505.55L415.47 505.47L415.3 505.39L415.13 505.3L414.96 505.21L414.78 505.12L414.61 505.02L414.45 504.93L414.28 504.83L414.11 504.73L413.94 504.64L413.78 504.53L413.61 504.43L413.45 504.33L413.29 504.22L413.13 504.11L412.97 504L412.81 503.89L412.65 503.78L412.49 503.67L412.34 503.55L412.18 503.43L412.03 503.32L411.88 503.2L411.73 503.07L411.58 502.95L411.43 502.82L411.28 502.7L411.14 502.57L410.99 502.44L410.85 502.31L410.7 502.17L410.56 502.04L410.42 501.9L410.29 501.76L410.15 501.63L410.01 501.48L409.88 501.34L409.75 501.2L409.62 501.05L409.49 500.9L409.36 500.75L409.23 500.6L409.1 500.45L408.98 500.3L408.86 500.14L408.74 499.99L408.62 499.83L408.5 499.67L408.38 499.52L408.27 499.35L408.15 499.19L408.04 499.03L407.93 498.87L407.82 498.7L407.71 498.53L407.6 498.36L407.5 498.2L407.39 498.02L407.29 497.85L407.19 497.68L407.09 497.5L406.99 497.33L406.89 497.15L406.8 496.97L406.7 496.79L406.61 496.61L406.52 496.43L406.43 496.24L406.34 496.06L406.26 495.87L406.17 495.69L406.09 495.5L406 495.31L405.92 495.12L405.84 494.92L405.76 494.73L405.69 494.53L405.62 494.34L405.55 494.14L405.48 493.94L405.42 493.75L405.35 493.55L405.29 493.35L405.23 493.15L405.18 492.95L405.12 492.75L405.07 492.55L405.01 492.35L404.96 492.15L404.92 491.95L404.87 491.75L404.82 491.55L404.78 491.34L404.74 491.14L404.7 490.94L404.66 490.73L404.63 490.53L404.59 490.32L404.56 490.11L404.53 489.91L404.5 489.7L404.48 489.49L404.45 489.28L404.43 489.07L404.41 488.86L404.39 488.64L404.37 488.43L404.36 488.22L404.34 488L404.33 487.79L404.32 487.57L404.32 487.35L404.31 487.14L404.31 486.92L404.31 486.7L404.31 466.52L411.55 466.52L411.55 486.7L411.55 486.83L411.55 486.83L411.55 486.97ZM371.97 474.52L371.9 474.52L371.82 474.52L371.75 474.53L371.67 474.53L371.6 474.54L371.52 474.55L371.45 474.56L371.38 474.57L371.3 474.59L371.23 474.6L371.16 474.62L371.09 474.64L371.02 474.66L370.95 474.68L370.88 474.7L370.81 474.73L370.75 474.75L370.68 474.78L370.61 474.81L370.55 474.84L370.48 474.87L370.42 474.9L370.36 474.94L370.29 474.97L370.23 475.01L370.17 475.05L370.11 475.09L370.05 475.13L369.99 475.17L369.93 475.22L369.87 475.26L369.81 475.31L369.76 475.36L369.7 475.41L369.65 475.46L369.59 475.51L369.54 475.57L369.49 475.62L369.43 475.68L369.38 475.74L369.33 475.8L369.28 475.86L369.24 475.92L369.19 475.98L369.15 476.04L369.1 476.1L369.06 476.16L369.02 476.23L368.98 476.29L368.94 476.36L368.91 476.42L368.87 476.49L368.84 476.55L368.8 476.62L368.77 476.69L368.74 476.76L368.71 476.83L368.68 476.9L368.66 476.97L368.63 477.04L368.61 477.11L368.59 477.19L368.56 477.26L368.54 477.34L368.53 477.41L368.51 477.49L368.49 477.56L368.48 477.64L368.46 477.72L368.45 477.8L368.44 477.88L368.43 477.96L368.42 478.04L368.42 478.12L368.41 478.21L368.41 478.29L368.4 478.38L368.4 478.46L368.4 478.55L368.4 478.64L368.4 478.72L368.41 478.81L368.41 478.89L368.42 478.98L368.42 479.06L368.43 479.14L368.44 479.22L368.45 479.3L368.46 479.38L368.48 479.46L368.49 479.54L368.51 479.62L368.53 479.69L368.54 479.77L368.56 479.85L368.59 479.92L368.61 479.99L368.63 480.07L368.66 480.14L368.68 480.21L368.71 480.29L368.74 480.36L368.77 480.43L368.8 480.5L368.84 480.57L368.87 480.64L368.91 480.71L368.94 480.77L368.98 480.84L369.02 480.91L369.06 480.98L369.1 481.04L369.15 481.11L369.19 481.17L369.24 481.24L369.28 481.31L369.33 481.37L369.38 481.43L369.43 481.5L369.49 481.56L369.54 481.61L369.59 481.67L369.65 481.72L369.7 481.77L369.76 481.82L369.81 481.87L369.87 481.92L369.93 481.96L369.99 482.01L370.05 482.05L370.11 482.09L370.17 482.13L370.23 482.17L370.29 482.21L370.36 482.24L370.42 482.28L370.48 482.31L370.55 482.34L370.61 482.37L370.68 482.4L370.75 482.43L370.81 482.45L370.88 482.48L370.95 482.5L371.02 482.52L371.09 482.54L371.16 482.56L371.23 482.57L371.3 482.59L371.38 482.6L371.45 482.62L371.52 482.63L371.6 482.64L371.67 482.64L371.75 482.65L371.82 482.66L371.9 482.66L371.97 482.66L372.05 482.66L386.73 482.66L386.85 482.66L386.96 482.66L387.07 482.67L387.19 482.67L387.3 482.68L387.41 482.68L387.52 482.69L387.63 482.7L387.75 482.71L387.86 482.72L387.97 482.73L388.08 482.75L388.19 482.76L388.3 482.78L388.41 482.8L388.51 482.82L388.62 482.84L388.73 482.86L388.84 482.88L388.95 482.9L389.05 482.93L389.16 482.96L389.27 482.99L389.37 483.01L389.48 483.05L389.58 483.08L389.69 483.11L389.79 483.15L389.9 483.18L390 483.22L390.1 483.26L390.2 483.3L390.31 483.34L390.41 483.38L390.51 483.43L390.61 483.47L390.71 483.52L390.81 483.57L390.91 483.62L391.01 483.67L391.11 483.72L391.21 483.77L391.31 483.81L391.41 483.86L391.51 483.91L391.61 483.97L391.71 484.02L391.81 484.07L391.91 484.13L392 484.18L392.1 484.24L392.19 484.29L392.28 484.35L392.38 484.41L392.47 484.47L392.56 484.53L392.65 484.59L392.74 484.65L392.83 484.71L392.92 484.78L393.01 484.84L393.09 484.91L393.18 484.97L393.26 485.04L393.35 485.11L393.43 485.18L393.51 485.25L393.6 485.32L393.68 485.39L393.76 485.46L393.84 485.53L393.92 485.61L394 485.68L394.07 485.76L394.15 485.83L394.23 485.91L394.3 485.99L394.37 486.07L394.45 486.15L394.52 486.23L394.6 486.31L394.67 486.4L394.75 486.48L394.83 486.56L394.9 486.65L394.97 486.73L395.04 486.82L395.12 486.9L395.19 486.99L395.26 487.08L395.32 487.17L395.39 487.26L395.46 487.34L395.52 487.44L395.59 487.53L395.65 487.62L395.72 487.71L395.78 487.81L395.84 487.9L395.9 488L395.96 488.09L396.02 488.19L396.07 488.29L396.13 488.39L396.18 488.49L396.24 488.59L396.29 488.69L396.34 488.79L396.39 488.9L396.44 489L396.49 489.11L396.53 489.22L396.58 489.32L396.62 489.43L396.67 489.54L396.71 489.65L396.75 489.77L396.79 489.88L396.83 489.99L396.86 490.11L396.91 490.22L396.96 490.33L397 490.44L397.04 490.56L397.08 490.67L397.12 490.78L397.16 490.89L397.2 491L397.23 491.12L397.27 491.23L397.3 491.34L397.33 491.46L397.36 491.57L397.39 491.69L397.42 491.8L397.45 491.92L397.47 492.03L397.5 492.15L397.52 492.26L397.55 492.38L397.57 492.5L397.59 492.61L397.61 492.73L397.62 492.85L397.64 492.97L397.66 493.08L397.67 493.2L397.68 493.32L397.7 493.44L397.71 493.56L397.72 493.68L397.73 493.8L397.73 493.92L397.74 494.04L397.75 494.16L397.75 494.28L397.76 494.4L397.76 494.52L397.76 494.64L397.76 494.77L397.76 494.89L397.76 495.01L397.75 495.13L397.75 495.25L397.74 495.38L397.74 495.5L397.73 495.62L397.72 495.74L397.71 495.86L397.7 495.99L397.69 496.11L397.67 496.23L397.66 496.35L397.64 496.47L397.62 496.59L397.6 496.71L397.58 496.83L397.56 496.95L397.54 497.07L397.52 497.19L397.5 497.31L397.47 497.43L397.45 497.55L397.42 497.66L397.39 497.78L397.36 497.9L397.33 498.02L397.3 498.13L397.27 498.25L397.24 498.37L397.2 498.48L397.17 498.6L397.13 498.71L397.1 498.83L397.06 498.94L397.02 499.05L396.99 499.16L396.95 499.28L396.91 499.39L396.86 499.5L396.82 499.61L396.78 499.72L396.74 499.83L396.69 499.93L396.65 500.04L396.6 500.15L396.56 500.25L396.51 500.36L396.46 500.46L396.41 500.56L396.36 500.66L396.31 500.77L396.26 500.87L396.21 500.97L396.15 501.07L396.1 501.17L396.04 501.26L395.99 501.36L395.93 501.46L395.87 501.55L395.82 501.65L395.76 501.75L395.7 501.84L395.63 501.93L395.57 502.03L395.51 502.12L395.44 502.21L395.38 502.31L395.31 502.4L395.25 502.49L395.18 502.58L395.11 502.67L395.04 502.76L394.97 502.85L394.9 502.94L394.82 503.03L394.75 503.11L394.67 503.2L394.6 503.29L394.52 503.38L394.45 503.46L394.37 503.54L394.3 503.62L394.23 503.7L394.15 503.77L394.07 503.85L394 503.93L393.92 504L393.84 504.08L393.76 504.15L393.68 504.22L393.6 504.29L393.51 504.37L393.43 504.44L393.35 504.51L393.26 504.57L393.18 504.64L393.09 504.71L393.01 504.78L392.92 504.84L392.83 504.91L392.74 504.97L392.65 505.04L392.56 505.1L392.47 505.16L392.38 505.22L392.28 505.28L392.19 505.34L392.1 505.4L392 505.46L391.91 505.52L391.81 505.58L391.71 505.63L391.61 505.69L391.51 505.75L391.41 505.8L391.31 505.86L391.21 505.91L391.11 505.96L391.01 506.02L390.91 506.06L390.81 506.11L390.71 506.15L390.61 506.19L390.51 506.23L390.41 506.27L390.31 506.31L390.21 506.35L390.11 506.39L390.01 506.42L389.91 506.46L389.81 506.49L389.7 506.52L389.6 506.55L389.5 506.58L389.39 506.61L389.29 506.64L389.18 506.66L389.08 506.69L388.97 506.71L388.87 506.74L388.76 506.76L388.65 506.78L388.54 506.8L388.44 506.82L388.33 506.83L388.22 506.85L388.11 506.86L388 506.88L387.89 506.89L387.77 506.9L387.66 506.91L387.55 506.92L387.43 506.93L387.32 506.93L387.2 506.94L387.09 506.94L386.97 506.94L386.85 506.95L386.73 506.95L364.68 506.95L364.68 498.96L386.73 498.96L386.82 498.95L386.9 498.95L386.98 498.95L387.06 498.94L387.14 498.94L387.22 498.93L387.29 498.92L387.37 498.91L387.45 498.9L387.52 498.88L387.6 498.87L387.67 498.85L387.74 498.83L387.81 498.81L387.89 498.79L387.96 498.77L388.03 498.75L388.1 498.72L388.16 498.69L388.23 498.66L388.3 498.63L388.36 498.6L388.43 498.57L388.49 498.54L388.56 498.5L388.62 498.46L388.68 498.43L388.74 498.39L388.81 498.34L388.87 498.3L388.92 498.26L388.98 498.21L389.04 498.16L389.1 498.11L389.15 498.06L389.21 498.01L389.26 497.96L389.32 497.9L389.37 497.85L389.42 497.79L389.47 497.73L389.52 497.67L389.57 497.61L389.62 497.55L389.66 497.49L389.71 497.43L389.75 497.36L389.79 497.3L389.83 497.23L389.87 497.17L389.91 497.1L389.95 497.03L389.98 496.96L390.02 496.89L390.05 496.82L390.08 496.75L390.11 496.68L390.14 496.61L390.17 496.54L390.2 496.46L390.22 496.39L390.25 496.31L390.27 496.24L390.29 496.16L390.31 496.08L390.33 496L390.35 495.93L390.36 495.85L390.38 495.77L390.39 495.69L390.4 495.6L390.41 495.52L390.42 495.44L390.43 495.36L390.44 495.27L390.44 495.19L390.45 495.1L390.45 495.02L390.45 494.93L390.45 494.84L390.45 494.76L390.45 494.67L390.45 494.59L390.44 494.5L390.44 494.42L390.43 494.34L390.42 494.25L390.41 494.17L390.4 494.09L390.39 494.01L390.38 493.93L390.36 493.86L390.35 493.78L390.33 493.7L390.31 493.63L390.29 493.55L390.27 493.48L390.25 493.41L390.22 493.33L390.2 493.26L390.17 493.19L390.14 493.12L390.11 493.05L390.08 492.98L390.05 492.92L390.02 492.85L389.98 492.78L389.95 492.71L389.91 492.65L389.87 492.58L389.83 492.52L389.79 492.46L389.75 492.39L389.71 492.33L389.66 492.27L389.62 492.21L389.57 492.15L389.52 492.09L389.47 492.03L389.42 491.97L389.37 491.92L389.32 491.86L389.26 491.8L389.21 491.75L389.15 491.7L389.1 491.65L389.04 491.6L388.98 491.55L388.92 491.51L388.87 491.46L388.81 491.42L388.74 491.38L388.68 491.34L388.62 491.3L388.56 491.26L388.49 491.23L388.43 491.19L388.36 491.16L388.3 491.13L388.23 491.1L388.16 491.07L388.1 491.04L388.03 491.02L387.96 491L387.89 490.97L387.81 490.95L387.74 490.93L387.67 490.91L387.6 490.9L387.52 490.88L387.45 490.87L387.37 490.86L387.29 490.84L387.22 490.84L387.14 490.83L387.06 490.82L386.98 490.82L386.9 490.81L386.82 490.81L386.73 490.81L372.05 490.81L371.94 490.81L371.83 490.81L371.71 490.8L371.6 490.8L371.49 490.79L371.37 490.79L371.26 490.78L371.15 490.77L371.04 490.76L370.93 490.75L370.82 490.74L370.71 490.73L370.6 490.71L370.49 490.69L370.38 490.68L370.27 490.66L370.16 490.64L370.05 490.62L369.94 490.6L369.83 490.58L369.72 490.55L369.61 490.53L369.5 490.5L369.4 490.47L369.29 490.45L369.18 490.42L369.08 490.38L368.97 490.35L368.86 490.32L368.76 490.29L368.65 490.25L368.55 490.21L368.44 490.18L368.33 490.14L368.23 490.1L368.13 490.05L368.02 490.01L367.92 489.97L367.81 489.92L367.71 489.88L367.61 489.83L367.51 489.78L367.42 489.73L367.32 489.68L367.23 489.63L367.13 489.58L367.04 489.52L366.94 489.47L366.85 489.41L366.75 489.36L366.66 489.3L366.57 489.24L366.48 489.18L366.39 489.12L366.3 489.06L366.21 488.99L366.12 488.93L366.03 488.87L365.94 488.8L365.86 488.73L365.77 488.67L365.69 488.6L365.6 488.53L365.52 488.46L365.43 488.39L365.35 488.32L365.27 488.24L365.19 488.17L365.11 488.1L365.03 488.02L364.95 487.95L364.87 487.87L364.79 487.8L364.71 487.72L364.64 487.64L364.56 487.56L364.48 487.48L364.41 487.4L364.34 487.32L364.26 487.24L364.19 487.15L364.12 487.06L364.05 486.98L363.98 486.89L363.91 486.8L363.84 486.71L363.77 486.62L363.7 486.53L363.63 486.44L363.57 486.35L363.5 486.26L363.44 486.17L363.37 486.08L363.31 485.98L363.24 485.89L363.18 485.8L363.12 485.7L363.06 485.61L363 485.51L362.94 485.42L362.88 485.32L362.82 485.22L362.76 485.13L362.71 485.03L362.65 484.93L362.59 484.83L362.54 484.73L362.49 484.63L362.43 484.53L362.38 484.43L362.33 484.32L362.28 484.22L362.23 484.11L362.19 484.01L362.14 483.9L362.09 483.8L362.05 483.69L362.01 483.58L361.96 483.47L361.92 483.36L361.88 483.25L361.84 483.14L361.8 483.03L361.76 482.91L361.73 482.8L361.69 482.69L361.66 482.57L361.62 482.46L361.59 482.34L361.56 482.23L361.53 482.11L361.5 482L361.47 481.88L361.44 481.76L361.42 481.65L361.39 481.53L361.37 481.41L361.34 481.29L361.32 481.17L361.3 481.05L361.28 480.93L361.26 480.81L361.24 480.69L361.23 480.57L361.21 480.45L361.19 480.33L361.18 480.21L361.17 480.09L361.16 479.97L361.15 479.85L361.14 479.73L361.13 479.6L361.12 479.48L361.11 479.36L361.11 479.24L361.1 479.12L361.1 478.99L361.1 478.87L361.09 478.75L361.09 478.63L361.09 478.5L361.1 478.37L361.1 478.25L361.1 478.12L361.11 478L361.11 477.87L361.12 477.75L361.13 477.62L361.14 477.5L361.15 477.38L361.16 477.26L361.17 477.13L361.18 477.01L361.19 476.89L361.21 476.77L361.23 476.65L361.24 476.54L361.26 476.42L361.28 476.3L361.3 476.18L361.32 476.07L361.34 475.95L361.37 475.84L361.39 475.72L361.42 475.61L361.44 475.5L361.47 475.38L361.5 475.27L361.53 475.16L361.56 475.05L361.59 474.94L361.62 474.83L361.66 474.72L361.69 474.61L361.73 474.5L361.76 474.4L361.8 474.29L361.84 474.18L361.88 474.08L361.92 473.97L361.97 473.86L362.01 473.75L362.06 473.64L362.11 473.54L362.16 473.43L362.21 473.32L362.26 473.21L362.31 473.11L362.36 473L362.41 472.9L362.46 472.79L362.52 472.69L362.57 472.59L362.63 472.49L362.68 472.38L362.74 472.28L362.79 472.18L362.85 472.08L362.91 471.99L362.96 471.89L363.02 471.79L363.08 471.69L363.14 471.6L363.2 471.5L363.26 471.41L363.32 471.32L363.39 471.22L363.45 471.13L363.51 471.04L363.58 470.95L363.64 470.86L363.71 470.77L363.78 470.68L363.84 470.6L363.91 470.51L363.98 470.43L364.05 470.34L364.12 470.26L364.19 470.18L364.26 470.09L364.34 470.01L364.41 469.93L364.48 469.85L364.56 469.77L364.64 469.7L364.71 469.62L364.79 469.55L364.87 469.47L364.95 469.4L365.03 469.32L365.11 469.25L365.19 469.18L365.27 469.11L365.35 469.04L365.43 468.97L365.52 468.91L365.6 468.84L365.69 468.78L365.77 468.71L365.86 468.65L365.94 468.59L366.03 468.53L366.12 468.47L366.21 468.41L366.3 468.35L366.39 468.29L366.48 468.24L366.57 468.18L366.66 468.13L366.75 468.08L366.85 468.02L366.94 467.97L367.04 467.92L367.13 467.88L367.23 467.83L367.32 467.78L367.42 467.74L367.51 467.69L367.61 467.65L367.71 467.61L367.81 467.56L367.92 467.52L368.02 467.48L368.13 467.43L368.23 467.39L368.33 467.35L368.44 467.31L368.55 467.27L368.65 467.23L368.76 467.19L368.86 467.15L368.97 467.12L369.08 467.08L369.18 467.05L369.29 467.02L369.4 466.99L369.5 466.96L369.61 466.93L369.72 466.9L369.83 466.87L369.94 466.85L370.05 466.82L370.16 466.8L370.27 466.78L370.38 466.76L370.49 466.74L370.6 466.72L370.71 466.7L370.82 466.69L370.93 466.67L371.04 466.66L371.15 466.65L371.26 466.64L371.37 466.63L371.49 466.62L371.6 466.61L371.71 466.61L371.83 466.61L371.94 466.6L372.05 466.6L394.18 466.6L394.18 474.52L372.05 474.52L372.05 474.52L371.97 474.52ZM175.96 466.54L176.17 466.55L176.37 466.56L176.58 466.58L176.78 466.59L176.99 466.61L177.19 466.64L177.39 466.66L177.6 466.69L177.8 466.72L178 466.76L178.2 466.8L178.41 466.84L178.61 466.88L178.81 466.92L179.01 466.97L179.21 467.02L179.41 467.07L179.61 467.13L179.81 467.19L180.01 467.25L180.2 467.31L180.4 467.37L180.6 467.44L180.8 467.51L180.99 467.59L181.19 467.66L181.39 467.74L181.58 467.82L181.78 467.9L181.97 467.99L182.37 468.17L182.57 468.26L182.76 468.35L182.96 468.45L183.16 468.55L183.35 468.65L183.55 468.76L183.74 468.87L183.93 468.98L184.12 469.09L184.31 469.2L184.5 469.32L184.68 469.44L184.87 469.56L185.05 469.68L185.23 469.81L185.42 469.94L185.6 470.07L185.77 470.2L185.95 470.34L186.13 470.48L186.3 470.62L186.48 470.76L186.65 470.91L186.82 471.06L186.99 471.21L187.16 471.36L187.33 471.52L187.49 471.67L187.66 471.83L187.82 472L187.98 472.16L188.14 472.33L188.3 472.5L190.85 475.29L185.82 480.96L183.2 478.16L183.1 478.05L183.01 477.95L182.91 477.84L182.81 477.74L182.71 477.64L182.61 477.54L182.5 477.44L182.4 477.35L182.3 477.26L182.19 477.16L182.09 477.07L181.99 476.99L181.88 476.9L181.77 476.82L181.67 476.73L181.56 476.65L181.45 476.57L181.34 476.49L181.24 476.42L181.13 476.34L181.02 476.27L180.91 476.2L180.8 476.13L180.68 476.06L180.57 475.99L180.46 475.93L180.35 475.86L180.24 475.8L180.12 475.74L180.01 475.68L179.89 475.62L179.78 475.56L179.66 475.5L179.55 475.45L179.43 475.39L179.31 475.34L179.18 475.29L179.06 475.24L178.94 475.19L178.82 475.15L178.7 475.1L178.58 475.06L178.45 475.02L178.33 474.98L178.21 474.94L178.09 474.91L177.97 474.87L177.85 474.84L177.72 474.81L177.6 474.78L177.48 474.75L177.36 474.72L177.24 474.7L177.12 474.67L176.99 474.65L176.87 474.63L176.75 474.61L176.63 474.6L176.51 474.58L176.39 474.57L176.26 474.56L176.14 474.55L176.02 474.54L175.9 474.53L175.78 474.52L175.66 474.52L175.53 474.52L175.41 474.52L175.29 474.52L175.17 474.52L175.05 474.52L174.92 474.53L174.8 474.54L174.68 474.55L174.55 474.56L174.43 474.57L174.31 474.58L174.18 474.6L174.06 474.61L173.94 474.63L173.81 474.65L173.69 474.67L173.57 474.7L173.44 474.72L173.32 474.75L173.2 474.78L173.07 474.81L172.95 474.84L172.83 474.87L172.71 474.91L172.59 474.94L172.46 474.98L172.34 475.02L172.22 475.06L172.1 475.1L171.98 475.15L171.86 475.19L171.75 475.24L171.63 475.29L171.51 475.34L171.39 475.39L171.28 475.45L171.16 475.5L171.04 475.56L170.92 475.62L170.8 475.68L170.68 475.74L170.57 475.8L170.45 475.86L170.34 475.93L170.22 475.99L170.11 476.06L170 476.13L169.89 476.2L169.78 476.27L169.67 476.34L169.56 476.42L169.45 476.49L169.35 476.57L169.24 476.65L169.14 476.73L169.03 476.82L168.93 476.9L168.82 476.99L168.72 477.07L168.62 477.16L168.52 477.26L168.42 477.35L168.32 477.44L168.22 477.54L168.12 477.64L168.02 477.74L167.92 477.84L167.82 477.95L167.72 478.05L167.62 478.16L167.53 478.27L167.43 478.37L167.34 478.47L167.25 478.58L167.16 478.69L167.07 478.79L166.98 478.9L166.89 479.01L166.81 479.12L166.73 479.23L166.64 479.34L166.56 479.45L166.48 479.57L166.41 479.68L166.33 479.79L166.26 479.91L166.19 480.02L166.12 480.14L166.05 480.26L165.98 480.38L165.91 480.5L165.85 480.62L165.79 480.74L165.73 480.86L165.67 480.98L165.61 481.1L165.55 481.23L165.5 481.35L165.45 481.48L165.4 481.61L165.35 481.73L165.3 481.86L165.26 481.99L165.21 482.12L165.16 482.25L165.12 482.38L165.07 482.51L165.03 482.64L164.99 482.77L164.95 482.91L164.91 483.04L164.87 483.17L164.83 483.3L164.8 483.44L164.76 483.57L164.73 483.71L164.7 483.84L164.67 483.97L164.64 484.11L164.62 484.24L164.59 484.38L164.57 484.51L164.55 484.65L164.53 484.79L164.51 484.92L164.49 485.06L164.47 485.19L164.46 485.33L164.44 485.47L164.43 485.6L164.42 485.74L164.41 485.88L164.4 486.01L164.4 486.15L164.39 486.29L164.39 486.42L164.39 486.56L164.39 486.7L164.39 486.83L164.39 486.97L164.39 487.11L164.4 487.24L164.4 487.38L164.41 487.52L164.42 487.65L164.43 487.79L164.44 487.93L164.46 488.06L164.47 488.2L164.49 488.34L164.51 488.47L164.53 488.61L164.55 488.74L164.57 488.88L164.59 489.01L164.62 489.15L164.64 489.28L164.67 489.42L164.7 489.55L164.73 489.69L164.76 489.82L164.8 489.96L164.83 490.09L164.87 490.22L164.91 490.35L164.95 490.49L164.99 490.62L165.03 490.75L165.07 490.88L165.12 491.01L165.16 491.14L165.21 491.27L165.26 491.4L165.31 491.53L165.36 491.66L165.42 491.79L165.47 491.92L165.53 492.05L165.59 492.17L165.65 492.3L165.71 492.43L165.77 492.55L165.83 492.68L165.9 492.8L165.96 492.92L166.03 493.05L166.1 493.17L166.17 493.29L166.24 493.41L166.31 493.53L166.38 493.65L166.46 493.76L166.53 493.88L166.61 494L166.69 494.11L166.77 494.23L166.85 494.34L166.93 494.45L167.01 494.56L167.1 494.67L167.18 494.78L167.27 494.89L167.36 495L167.44 495.1L167.53 495.21L167.62 495.31L167.82 495.52L168.02 495.72L168.22 495.92L168.42 496.11L168.62 496.29L168.83 496.47L169.03 496.64L169.24 496.8L169.45 496.96L169.67 497.11L169.88 497.26L170.1 497.39L170.32 497.53L170.54 497.65L170.76 497.77L170.99 497.89L171.22 498L171.45 498.1L171.68 498.19L171.92 498.28L172.15 498.36L172.39 498.44L172.64 498.51L172.88 498.57L173.13 498.63L173.38 498.68L173.63 498.73L173.89 498.77L174.15 498.8L174.41 498.83L174.67 498.85L174.94 498.87L175.21 498.87L175.48 498.88L175.61 498.88L175.74 498.87L175.87 498.87L175.99 498.86L176.12 498.86L176.25 498.85L176.38 498.84L176.5 498.83L176.63 498.81L176.76 498.8L176.88 498.78L177.01 498.76L177.14 498.74L177.27 498.72L177.39 498.7L177.52 498.67L177.64 498.64L177.77 498.62L177.9 498.59L178.02 498.56L178.15 498.52L178.27 498.49L178.4 498.45L178.52 498.41L178.65 498.37L178.77 498.33L178.9 498.29L179.02 498.25L179.14 498.2L179.27 498.15L179.39 498.1L179.51 498.05L179.63 498L179.76 497.95L179.88 497.89L180 497.83L180.12 497.78L180.23 497.72L180.35 497.66L180.47 497.6L180.58 497.53L180.69 497.47L180.81 497.4L180.92 497.33L181.03 497.27L181.14 497.2L181.25 497.12L181.36 497.05L181.46 496.98L181.57 496.9L181.68 496.82L181.78 496.74L181.88 496.66L181.99 496.58L182.09 496.49L182.19 496.41L182.29 496.32L182.39 496.23L182.49 496.14L182.59 496.05L182.68 495.95L182.78 495.85L182.87 495.75L182.97 495.65L183.06 495.55L183.16 495.45L183.25 495.34L183.34 495.23L185.96 492.44L190.99 498.1L188.44 500.89L188.28 501.07L188.12 501.23L187.96 501.4L187.8 501.56L187.63 501.72L187.47 501.88L187.3 502.04L187.13 502.2L186.96 502.35L186.79 502.5L186.62 502.65L186.44 502.8L186.27 502.94L186.09 503.08L185.91 503.22L185.73 503.36L185.55 503.49L185.37 503.63L185.19 503.76L185.01 503.88L184.82 504.01L184.63 504.13L184.45 504.25L184.26 504.37L184.07 504.48L183.88 504.59L183.68 504.7L183.49 504.81L183.3 504.92L183.1 505.02L182.9 505.12L182.7 505.21L182.51 505.3L182.31 505.39L182.11 505.48L181.91 505.56L181.72 505.63L181.52 505.71L181.32 505.78L181.13 505.85L180.93 505.92L180.73 505.99L180.53 506.05L180.33 506.11L180.13 506.17L179.93 506.23L179.73 506.28L179.53 506.34L179.32 506.39L179.12 506.44L178.92 506.48L178.72 506.52L178.51 506.57L178.31 506.6L178.11 506.64L177.91 506.67L177.7 506.7L177.5 506.73L177.3 506.76L177.1 506.78L176.89 506.8L176.69 506.82L176.49 506.83L176.29 506.85L176.09 506.86L175.88 506.86L175.68 506.87L175.48 506.87L175.28 506.87L175.07 506.86L174.86 506.86L174.66 506.85L174.45 506.84L174.24 506.82L174.04 506.81L173.83 506.79L173.62 506.77L173.42 506.75L173.21 506.72L173 506.69L172.8 506.66L172.59 506.63L172.39 506.59L172.18 506.55L171.98 506.51L171.77 506.47L171.57 506.42L171.36 506.37L171.16 506.32L170.95 506.26L170.75 506.21L170.54 506.15L170.34 506.08L170.14 506.02L169.93 505.95L169.73 505.88L169.53 505.8L169.33 505.73L169.12 505.65L168.92 505.57L168.72 505.48L168.52 505.39L168.33 505.3L168.13 505.21L167.94 505.12L167.75 505.02L167.56 504.92L167.37 504.81L167.18 504.7L167 504.59L166.81 504.48L166.63 504.37L166.44 504.25L166.26 504.13L166.08 504.01L165.9 503.88L165.72 503.76L165.54 503.63L165.36 503.49L165.18 503.36L165 503.22L164.83 503.08L164.65 502.94L164.48 502.8L164.31 502.65L164.14 502.5L163.96 502.35L163.79 502.2L163.62 502.04L163.45 501.88L163.29 501.72L163.12 501.56L162.95 501.4L162.79 501.23L162.62 501.07L162.46 500.89L162.3 500.72L162.14 500.54L161.99 500.36L161.84 500.18L161.7 499.99L161.55 499.81L161.41 499.63L161.27 499.44L161.13 499.26L161 499.07L160.87 498.88L160.74 498.69L160.61 498.5L160.48 498.31L160.36 498.12L160.24 497.93L160.12 497.73L160 497.54L159.89 497.34L159.78 497.14L159.67 496.94L159.56 496.74L159.46 496.54L159.36 496.34L159.26 496.13L159.16 495.93L159.06 495.72L158.97 495.51L158.88 495.3L158.79 495.09L158.7 494.87L158.62 494.66L158.54 494.44L158.46 494.22L158.38 494L158.3 493.78L158.23 493.57L158.16 493.35L158.09 493.13L158.03 492.91L157.97 492.69L157.9 492.47L157.85 492.25L157.79 492.03L157.74 491.81L157.69 491.59L157.64 491.37L157.59 491.15L157.55 490.93L157.51 490.71L157.47 490.49L157.43 490.27L157.4 490.05L157.36 489.83L157.33 489.6L157.31 489.38L157.28 489.16L157.26 488.94L157.24 488.72L157.22 488.49L157.2 488.27L157.19 488.05L157.18 487.82L157.17 487.6L157.16 487.37L157.15 487.15L157.15 486.92L157.15 486.7L157.15 486.46L157.15 486.23L157.16 486L157.17 485.77L157.18 485.54L157.19 485.31L157.2 485.08L157.22 484.85L157.24 484.62L157.26 484.39L157.28 484.16L157.31 483.93L157.33 483.71L157.36 483.48L157.4 483.25L157.43 483.02L157.47 482.8L157.51 482.57L157.55 482.35L157.59 482.12L157.64 481.9L157.69 481.67L157.74 481.45L157.79 481.23L157.85 481L157.9 480.78L157.97 480.56L158.03 480.34L158.09 480.12L158.16 479.9L158.23 479.67L158.3 479.45L158.38 479.24L158.46 479.02L158.52 478.81L158.59 478.61L158.66 478.4L158.73 478.2L158.81 477.99L158.89 477.79L158.97 477.59L159.06 477.39L159.15 477.19L159.24 476.99L159.33 476.79L159.43 476.59L159.54 476.39L159.64 476.2L159.75 476L159.86 475.81L159.97 475.61L160.09 475.42L160.21 475.23L160.33 475.04L160.46 474.85L160.59 474.66L160.72 474.47L160.85 474.28L160.99 474.1L161.12 473.92L161.27 473.73L161.41 473.55L161.55 473.37L161.7 473.2L161.85 473.02L162.01 472.84L162.16 472.67L162.32 472.5L162.48 472.33L162.64 472.16L162.8 472L162.96 471.83L163.12 471.67L163.29 471.52L163.45 471.36L163.62 471.21L163.79 471.06L163.95 470.91L164.12 470.76L164.3 470.62L164.47 470.48L164.64 470.34L164.82 470.2L164.99 470.07L165.17 469.94L165.35 469.81L165.53 469.68L165.71 469.56L165.89 469.44L166.07 469.32L166.26 469.2L166.45 469.09L166.63 468.98L166.82 468.87L167.01 468.76L167.2 468.65L167.4 468.55L167.59 468.45L167.79 468.35L167.98 468.26L168.18 468.17L168.38 468.08L168.58 467.99L168.78 467.9L168.99 467.82L169.19 467.74L169.39 467.66L169.59 467.59L169.8 467.51L170 467.44L170.2 467.37L170.41 467.31L170.61 467.25L170.81 467.19L171.02 467.13L171.22 467.07L171.43 467.02L171.63 466.97L171.84 466.92L172.04 466.88L172.25 466.84L172.45 466.8L172.66 466.76L172.87 466.72L173.07 466.69L173.28 466.66L173.48 466.64L173.69 466.61L173.9 466.59L174.1 466.58L174.31 466.56L174.52 466.55L174.72 466.54L174.93 466.53L175.14 466.53L175.34 466.52L175.55 466.53L175.76 466.53L175.76 466.53L175.96 466.54ZM336.51 474.75L336.2 474.79L335.89 474.85L335.57 474.91L335.27 474.99L334.96 475.08L334.65 475.17L334.35 475.28L334.05 475.4L333.75 475.54L333.45 475.68L333.16 475.82L332.88 475.96L332.6 476.11L332.32 476.27L332.05 476.44L331.79 476.61L331.53 476.8L331.28 476.99L331.03 477.19L330.79 477.39L330.56 477.61L330.32 477.84L330.09 478.07L329.87 478.32L329.67 478.55L329.47 478.8L329.27 479.05L329.08 479.3L328.89 479.57L328.71 479.84L328.54 480.11L328.36 480.39L328.2 480.68L328.04 480.97L327.89 481.27L327.74 481.57L327.59 481.88L327.46 482.2L327.34 482.51L327.24 482.83L327.14 483.16L327.05 483.48L326.97 483.81L326.9 484.13L326.84 484.47L326.78 484.8L326.74 485.14L326.7 485.47L326.67 485.82L326.65 486.16L326.64 486.5L326.63 486.85L326.64 487.22L326.65 487.57L326.67 487.93L326.7 488.28L326.74 488.63L326.78 488.97L326.84 489.32L326.9 489.66L326.97 489.99L327.05 490.33L327.14 490.66L327.24 491L327.34 491.33L327.46 491.66L327.59 491.98L327.73 492.28L327.88 492.59L328.03 492.89L328.18 493.18L328.34 493.47L328.51 493.76L328.68 494.04L328.86 494.31L329.05 494.58L329.24 494.85L329.44 495.11L329.65 495.37L329.87 495.62L330.09 495.85L330.32 496.07L330.56 496.29L330.79 496.49L331.03 496.7L331.28 496.89L331.53 497.08L331.79 497.27L332.05 497.45L332.32 497.62L332.6 497.79L332.88 497.95L333.16 498.1L333.45 498.26L333.75 498.39L334.05 498.5L334.35 498.61L334.65 498.71L334.96 498.8L335.27 498.88L335.57 498.96L335.89 499.02L336.2 499.07L336.51 499.11L336.83 499.15L337.15 499.17L337.47 499.18L337.8 499.19L338.12 499.18L338.44 499.17L338.76 499.15L339.08 499.11L339.4 499.07L339.71 499.02L340.02 498.96L340.33 498.88L340.64 498.8L340.94 498.71L341.24 498.61L341.54 498.5L341.84 498.39L342.14 498.26L342.43 498.12L342.72 497.97L343 497.82L343.27 497.65L343.54 497.48L343.8 497.3L344.05 497.11L344.3 496.92L344.54 496.72L344.78 496.51L345.01 496.29L345.23 496.07L345.44 495.85L345.65 495.62L345.87 495.37L346.08 495.11L346.29 494.85L346.49 494.58L346.68 494.31L346.86 494.04L347.03 493.76L347.2 493.47L347.36 493.18L347.5 492.89L347.64 492.59L347.77 492.28L347.89 491.98L348 491.66L348.13 491.34L348.24 491.02L348.35 490.69L348.45 490.36L348.53 490.03L348.61 489.69L348.68 489.34L348.74 489L348.79 488.65L348.82 488.29L348.86 487.94L348.88 487.58L348.89 487.22L348.89 486.85L348.89 486.49L348.88 486.13L348.86 485.78L348.82 485.43L348.79 485.08L348.74 484.74L348.68 484.41L348.61 484.08L348.53 483.75L348.45 483.43L348.35 483.12L348.24 482.8L348.13 482.5L348 482.2L347.88 481.88L347.75 481.57L347.61 481.27L347.47 480.97L347.32 480.68L347.17 480.39L347.01 480.11L346.84 479.84L346.66 479.57L346.47 479.3L346.28 479.05L346.08 478.8L345.87 478.55L345.65 478.32L345.44 478.07L345.23 477.84L345.01 477.61L344.78 477.39L344.54 477.19L344.3 476.99L344.05 476.8L343.8 476.61L343.54 476.44L343.27 476.27L343 476.11L342.72 475.96L342.43 475.82L342.14 475.68L341.84 475.55L341.54 475.43L341.24 475.31L340.94 475.21L340.64 475.11L340.33 475.02L340.02 474.94L339.71 474.87L339.4 474.81L339.08 474.76L338.76 474.72L338.44 474.69L338.12 474.68L337.8 474.67L337.47 474.68L337.15 474.69L336.83 474.71L336.83 474.71L336.51 474.75ZM463.6 474.46L463.3 474.48L463 474.51L462.71 474.54L462.42 474.59L462.13 474.65L461.84 474.72L461.55 474.79L461.26 474.88L460.98 474.97L460.7 475.07L460.42 475.19L460.14 475.31L459.86 475.45L459.59 475.57L459.32 475.71L459.06 475.85L458.8 475.99L458.55 476.15L458.3 476.31L458.06 476.48L457.82 476.65L457.59 476.83L457.36 477.02L457.13 477.22L456.91 477.42L456.7 477.64L456.49 477.86L456.28 478.08L456.09 478.3L455.9 478.53L455.72 478.76L455.54 478.99L455.36 479.23L455.19 479.47L455.03 479.72L454.87 479.98L454.72 480.24L454.57 480.51L454.43 480.79L454.3 481.07L454.17 481.36L454.05 481.66L453.93 481.96L453.83 482.26L453.73 482.56L453.64 482.86L453.55 483.16L453.47 483.46L453.4 483.77L453.34 484.08L453.29 484.39L453.24 484.7L453.2 485.02L453.17 485.33L453.14 485.65L453.12 485.97L453.11 486.29L453.11 486.62L453.11 486.96L453.12 487.29L453.14 487.63L453.17 487.95L453.2 488.28L453.24 488.6L453.29 488.92L453.34 489.24L453.4 489.56L453.47 489.87L453.55 490.19L453.64 490.5L453.73 490.81L453.83 491.12L453.93 491.43L454.06 491.72L454.19 492.01L454.32 492.3L454.46 492.58L454.6 492.85L454.75 493.12L454.9 493.39L455.05 493.66L455.21 493.92L455.38 494.17L455.55 494.42L455.72 494.67L455.9 494.91L456.09 495.15L456.28 495.39L456.49 495.6L456.7 495.81L456.91 496.01L457.13 496.21L457.36 496.4L457.59 496.58L457.82 496.76L458.06 496.94L458.3 497.11L458.55 497.27L458.8 497.43L459.06 497.59L459.32 497.74L459.59 497.88L459.86 498.02L460.14 498.14L460.42 498.26L460.7 498.36L460.98 498.45L461.26 498.54L461.55 498.62L461.84 498.69L462.13 498.75L462.42 498.81L462.71 498.85L463 498.89L463.3 498.92L463.6 498.94L463.9 498.95L464.2 498.96L464.51 498.95L464.81 498.94L465.1 498.92L465.4 498.89L465.69 498.85L465.99 498.81L466.27 498.75L466.56 498.69L466.84 498.62L467.12 498.54L467.4 498.45L467.67 498.36L467.95 498.26L468.21 498.14L468.48 498.02L468.75 497.88L469.02 497.74L469.28 497.59L469.53 497.43L469.79 497.27L470.03 497.11L470.27 496.94L470.51 496.76L470.73 496.58L470.96 496.4L471.18 496.21L471.39 496.01L471.59 495.81L471.8 495.6L471.99 495.39L472.19 495.15L472.39 494.91L472.58 494.67L472.76 494.42L472.94 494.17L473.1 493.92L473.27 493.66L473.42 493.39L473.57 493.12L473.71 492.85L473.85 492.58L473.98 492.3L474.1 492.01L474.22 491.72L474.33 491.43L474.45 491.13L474.56 490.83L474.67 490.53L474.76 490.22L474.84 489.91L474.92 489.59L474.99 489.27L475.04 488.95L475.09 488.63L475.14 488.3L475.17 487.97L475.2 487.63L475.22 487.3L475.23 486.96L475.23 486.62L475.23 474.44L464.2 474.44L463.9 474.44L463.9 474.44L463.6 474.46ZM212.91 474.67L212.23 474.83L211.58 475.03L210.93 475.26L210.31 475.54L209.7 475.86L209.11 476.23L208.54 476.64L207.98 477.1L207.44 477.61L206.91 478.16L206.28 478.9L205.72 479.66L205.22 480.45L204.79 481.27L204.43 482.12L204.13 482.99L203.9 483.9L203.74 484.83L203.64 485.79L203.6 486.77L203.62 487.33L203.65 487.88L203.71 488.43L203.8 488.97L203.9 489.5L204.03 490.03L204.19 490.54L204.36 491.05L204.56 491.56L204.77 492.05L204.99 491.83L205.22 491.58L205.47 491.32L205.74 491.03L206.02 490.71L206.33 490.37L206.65 490.01L206.99 489.63L207.36 489.22L207.74 488.79L208.15 488.34L208.57 487.89L208.98 487.43L209.4 486.96L209.81 486.49L210.23 486.02L210.66 485.55L211.08 485.08L211.51 484.6L211.94 484.14L212.4 483.63L212.84 483.13L213.29 482.64L213.73 482.15L214.17 481.67L214.6 481.2L215.03 480.73L215.45 480.26L215.87 479.79L216.28 479.33L216.71 478.89L217.1 478.48L217.48 478.08L217.83 477.71L218.16 477.35L218.47 477.01L218.76 476.69L219.04 476.38L219.29 476.1L219.52 475.83L218.9 475.51L218.27 475.23L217.63 475L216.98 474.81L216.32 474.67L215.65 474.58L214.98 474.53L214.3 474.53L213.61 474.58L213.61 474.58L212.91 474.67Z" id="b2ScTOSxqK"></path><path d="M190.98 308.16C190.98 312.38 190.4 318.98 190.4 318.98C182.59 318.98 120.07 319.03 112.26 319.04C113.02 331.39 122.5 340.29 135.81 340.22C145.47 340.22 151.74 336.7 154.82 330.18C158.21 330.18 185.34 330.23 188.74 330.24C185.66 345.98 171.71 365.95 136.45 365.95C102.59 366.02 78.98 339.84 78.98 308.22C78.98 276.22 100.35 252.48 134.08 252.42C168 252.35 190.98 276.35 190.98 308.16M134.53 278.08C118.21 278.08 112.83 291.33 112.19 297.54C115.2 297.54 130.24 297.54 157.31 297.54C154.33 284.57 146.73 278.08 134.53 278.08Z" id="a1GoSdgvgm"></path><path d="M412.03 408.7C325.82 397.31 239.17 396.67 104.96 406.02C105.11 405.41 106.28 400.6 106.43 400C240.64 388.42 346.37 382.27 404.35 384.06C438.53 385.09 448.96 387.52 448.96 399.42C448.96 412.03 433.73 411.52 412.03 408.7" id="e17YvBkHf5"></path></defs><g><g><g><use xlink:href="#c177Axrd8" opacity="1" fill="#ffffff" fill-opacity="1"></use><g><use xlink:href="#c177Axrd8" opacity="1" fill-opacity="0" stroke="#000000" stroke-width="1" stroke-opacity="0"></use></g></g><g><use xlink:href="#davpZB6Am" opacity="1" fill="#d5181b" fill-opacity="1"></use><g><use xlink:href="#davpZB6Am" opacity="1" fill-opacity="0" stroke="#000000" stroke-width="1" stroke-opacity="0"></use></g></g><g><use xlink:href="#b1MbTgCkOT" opacity="1" fill="#000000" fill-opacity="0"></use><g><use xlink:href="#b1MbTgCkOT" opacity="1" fill-opacity="0" stroke="#d5181b" stroke-width="0.97" stroke-opacity="1"></use></g></g><g><use xlink:href="#a2ebPPRa07" opacity="1" fill="#d5181b" fill-opacity="1"></use><g><use xlink:href="#a2ebPPRa07" opacity="1" fill-opacity="0" stroke="#000000" stroke-width="1" stroke-opacity="0"></use></g></g><g><use xlink:href="#eEN3ZDH8N" opacity="1" fill="#000000" fill-opacity="0"></use><g><use xlink:href="#eEN3ZDH8N" opacity="1" fill-opacity="0" stroke="#d5181b" stroke-width="0.9" stroke-opacity="1"></use></g></g><g><use xlink:href="#a8MYUJnpnG" opacity="1" fill="#f2dd19" fill-opacity="1"></use><g><use xlink:href="#a8MYUJnpnG" opacity="1" fill-opacity="0" stroke="#000000" stroke-width="1" stroke-opacity="0"></use></g></g><g><use xlink:href="#d1jv0AZHju" opacity="1" fill="#f2dd19" fill-opacity="1"></use><g><use xlink:href="#d1jv0AZHju" opacity="1" fill-opacity="0" stroke="#000000" stroke-width="1" stroke-opacity="0"></use></g></g><g><use xlink:href="#hv3brtYDP" opacity="1" fill="#f2dd19" fill-opacity="1"></use><g><use xlink:href="#hv3brtYDP" opacity="1" fill-opacity="0" stroke="#000000" stroke-width="1" stroke-opacity="0"></use></g></g><g><use xlink:href="#b2ScTOSxqK" opacity="1" fill="#ffffff" fill-opacity="1"></use><g><use xlink:href="#b2ScTOSxqK" opacity="1" fill-opacity="0" stroke="#000000" stroke-width="1" stroke-opacity="0"></use></g></g><g><use xlink:href="#a1GoSdgvgm" opacity="1" fill="#f2dd19" fill-opacity="1"></use><g><use xlink:href="#a1GoSdgvgm" opacity="1" fill-opacity="0" stroke="#000000" stroke-width="1" stroke-opacity="0"></use></g></g><g><use xlink:href="#e17YvBkHf5" opacity="1" fill="#f2dd19" fill-opacity="1"></use><g><use xlink:href="#e17YvBkHf5" opacity="1" fill-opacity="0" stroke="#000000" stroke-width="1" stroke-opacity="0"></use></g></g></g></g></svg>