<?xml version="1.0" encoding="utf-8"?>
<!-- Generator: Adobe Illustrator 27.9.0, SVG Export Plug-In . SVG Version: 6.00 Build 0)  -->
<svg version="1.1" id="Capa_1" xmlns="http://www.w3.org/2000/svg" xmlns:xlink="http://www.w3.org/1999/xlink" x="0px" y="0px"
	 viewBox="0 0 201 44" style="enable-background:new 0 0 201 44;" xml:space="preserve">
<style type="text/css">
	.st0{fill:#E9004B;}
</style>
<g>
	<path class="st0" d="M33.5,36.3c-1.3,0.7-2.4,0.7-2.9,0.1c-0.1-0.1-0.1-0.2-0.1-0.4v0c0,0,0,0,0-0.1c0,0,0-0.1,0-0.1v0
		c0-0.3,0.1-0.8,0.3-1.1c1.8-3.3,7.5-10,7.5-16c0-5.6-1.5-8.9-2.8-11.1c-0.3-0.4-0.6-1-0.8-1.5c0,0,0,0,0,0
		c-0.1-0.1-0.1-0.3-0.1-0.5c0-0.7,0.6-1.3,1.3-1.3c0.1,0,0.3,0,0.4,0.1c0,0,0,0,0,0c0.7,0.2,1.4,0.7,2.2,1.2
		c3.5,2.6,7.9,8.5,7.9,13.1C46.4,26.6,37.2,34.6,33.5,36.3 M19.4,37.7c0,0.2-0.1,0.5-0.3,0.6c0,0-0.7,0.5-1.7,0.8
		c-0.9,0.3-2,0.5-3.6,0.7C7.5,40.2,3.2,35.1,3,31.6c0,0,0-0.2,0-0.2c0-0.2,0-0.4,0-0.6c0.2-1.2,1.2-2.2,2.5-2.3c1-0.1,2,0.5,2.5,1.3
		l0,0C8,29.9,8,30,8.1,30c0.1,0.2,0.2,0.5,0.4,0.7c0.3,0.7,0.7,1.4,1.1,2.1c2.2,3.4,5.2,4.2,7.8,4.3c0.5,0,0.8,0,1.1,0
		c0,0,0.2,0,0.2,0C19.1,37.1,19.4,37.4,19.4,37.7 M27.4,22.5c-2.3,4.4-7,6.4-9.2,4.8c-2.2-1.6-3.7-5.5-2.3-8.3
		c1.8-3.6,7-4.6,9.9-3.1C28.2,16.9,28.9,19.7,27.4,22.5 M29.9,10.1C24,7.3,13.7,9.2,10.1,16.4c-2.8,5.6,0.3,13.3,4.6,16.6
		c4.4,3.3,13.8-0.7,18.4-9.5C36,17.8,34.7,12.4,29.9,10.1"/>
	<path class="st0" d="M177,30.7L177,30.7C177,30.7,177,30.7,177,30.7z M177,30.3h-14c0,0-1.9,0.1-1-1.7l7.2-12.2h-3.5
		c-3.7,0-3.3-3.7-3.3-3.7h12.3c0,0,0,0,0.1,0c0.4,0,1.7,0.2,0.8,1.8h0l-7.3,12.1h5.9C176.9,26.6,177.1,29.3,177,30.3L177,30.3z
		 M81.2,14.1c0.9,1.1,1.4,2.8,1.4,5.2v9c0,1.3-1.1,2.4-2.4,2.4h0c-0.8,0-1.6-0.1-2.4-0.2v-10c0-1.2-0.1-2.2-0.5-2.8
		c-0.3-0.7-0.9-1-1.9-1c-0.4,0-0.8,0-1.1,0.2s-0.7,0.3-1,0.6c-0.3,0.3-0.6,0.7-0.8,1.3c-0.2,0.6-0.3,1.3-0.3,2.2v7.3
		c0,1.3-1.1,2.4-2.4,2.4h0c-0.8,0-1.6-0.1-2.4-0.2v-2.1c0,0,0-0.1,0-0.1s0-0.1,0-0.1v-7.6c0-1.2-0.1-2.2-0.5-2.8
		c-0.3-0.7-0.9-1-1.9-1c-0.4,0-0.8,0-1.2,0.2c-0.4,0.1-0.7,0.3-1,0.7c-0.3,0.3-0.6,0.8-0.7,1.4c-0.2,0.6-0.3,1.4-0.3,2.3v7l0,0
		c0,0,0,0.1,0,0.1v0.1c0,0,0,0.1,0,0.1c0,0,0,0.1,0,0.1c0,0,0,0.1,0,0.1c0,0,0,0.1,0,0.1c0,0,0,0.1,0,0.1c0,0,0,0.1,0,0.1
		c0,0,0,0,0,0.1c0,0,0,0.1-0.1,0.1c0,0,0,0,0,0c-0.4,0.7-1.2,1.2-2.1,1.2c-0.8,0-1.6-0.1-2.4-0.2V12.9c0.3-0.1,0.6-0.1,1-0.2
		c0.3,0,0.7,0,1.1,0s0.7,0,1,0c0.3,0,0.6,0.1,0.9,0.2c0.1,0.1,0.1,0.3,0.2,0.5s0.1,0.4,0.2,0.7c0,0.2,0.1,0.5,0.1,0.7
		c0,0.2,0.1,0.4,0.1,0.6c0.2-0.3,0.4-0.7,0.7-1c0.3-0.3,0.6-0.6,1.1-0.9c0.4-0.3,0.9-0.5,1.4-0.7c0.5-0.2,1.1-0.3,1.7-0.3
		c2.8,0,4.5,1,5.3,3.1c0.5-0.8,1.1-1.6,1.9-2.2c0.8-0.6,1.9-0.9,3.2-0.9C78.9,12.5,80.3,13,81.2,14.1 M94.3,26.8
		c-0.3,0-0.5,0.1-0.9,0.2c-0.3,0.1-0.7,0.1-1,0.1c-0.3,0-0.7,0-1-0.1c-0.4,0-0.8-0.1-1.1-0.3c-0.4-0.1-0.7-0.4-0.9-0.7
		c-0.3-0.3-0.4-0.8-0.4-1.4c0-0.9,0.3-1.5,1-1.9s1.5-0.6,2.6-0.6c0.3,0,0.5,0,0.8,0c0.3,0,0.6,0.1,0.9,0.1L94.3,26.8L94.3,26.8z
		 M97,14.1c-1.3-1.1-3.2-1.7-5.5-1.7c-0.9,0-1.8,0.1-2.8,0.2c-0.4,0.1-0.8,0.2-1.3,0.3c-0.1,0-0.2,0-0.3,0.1
		c-0.5,0.1-0.9,0.3-1.4,0.4c0,0.6,0.1,1.1,0.2,1.6c0,0.1,0,0.2,0.1,0.3c0,0.1,0,0.1,0.1,0.2c0.3,0.6,0.9,1.1,1.7,1.1h0
		c0.1,0,0.2,0,0.3,0c0.1,0,0.2,0,0.3-0.1c0.8-0.2,1.6-0.3,2.3-0.3c0.6,0,1.1,0,1.6,0.1c0.5,0.1,0.9,0.2,1.2,0.4
		c0.3,0.2,0.6,0.5,0.8,0.8c0.2,0.3,0.3,0.8,0.3,1.3v0.4c-0.8-0.1-1.5-0.1-2.2-0.1c-0.9,0-1.8,0.1-2.7,0.3c-0.9,0.2-1.7,0.5-2.5,0.9
		c-0.7,0.4-1.3,1-1.8,1.8c-0.5,0.7-0.7,1.7-0.7,2.7c0,1.1,0.2,2,0.6,2.8c0.4,0.8,0.9,1.4,1.6,1.8c0.7,0.5,1.5,0.8,2.5,1
		c1,0.2,2,0.3,3.2,0.3c1.4,0,3.6-0.3,4.9-0.6c1.2-0.3,1.9-1.2,1.9-2.3v-8.4C99,17,98.4,15.2,97,14.1 M187,26.7
		c-0.3,0-0.5,0.1-0.9,0.1c-0.3,0.1-0.7,0.1-1,0.1c-0.3,0-0.6,0-1,0c-0.4,0-0.8-0.1-1.1-0.3c-0.4-0.1-0.7-0.4-0.9-0.7
		c-0.2-0.3-0.4-0.8-0.4-1.4c0-0.9,0.3-1.5,1-1.9s1.5-0.6,2.6-0.6c0.2,0,0.5,0,0.9,0c0.3,0,0.6,0.1,0.9,0.1L187,26.7L187,26.7z
		 M189.7,14c-1.3-1.1-3.2-1.7-5.6-1.7c-0.9,0-1.8,0.1-2.8,0.2c-0.4,0.1-0.9,0.1-1.3,0.3c-0.1,0-0.2,0-0.3,0.1
		c-0.5,0.1-0.9,0.3-1.4,0.4c0,0.6,0,1.1,0.2,1.6c0,0.1,0,0.2,0.1,0.3c0,0.1,0,0.1,0.1,0.2c0.3,0.6,0.9,1.1,1.7,1.1h0
		c0.1,0,0.2,0,0.3,0c0.1,0,0.2,0,0.3-0.1c0.8-0.2,1.6-0.3,2.3-0.3c0.6,0,1.1,0,1.6,0.1c0.5,0.1,0.8,0.2,1.2,0.4
		c0.3,0.2,0.6,0.5,0.8,0.8c0.2,0.3,0.3,0.8,0.3,1.3v0.4c-0.8-0.1-1.5-0.1-2.2-0.1c-0.9,0-1.8,0.1-2.7,0.3c-0.9,0.2-1.7,0.5-2.5,0.9
		c-0.7,0.4-1.3,1-1.8,1.8c-0.5,0.7-0.7,1.7-0.7,2.7c0,1.1,0.2,2,0.6,2.8c0.4,0.8,0.9,1.4,1.6,1.8c0.7,0.5,1.5,0.8,2.5,1
		c1,0.2,2,0.3,3.2,0.3c1.4,0,3.6-0.3,4.9-0.6c1.2-0.3,1.9-1.2,1.9-2.3v-8.4C191.7,16.9,191,15.1,189.7,14L189.7,14z M155.9,26.7
		c-0.3,0-0.5,0.1-0.9,0.1c-0.3,0.1-0.7,0.1-1,0.1c-0.3,0-0.6,0-1,0c-0.4,0-0.8-0.1-1.1-0.3c-0.4-0.1-0.7-0.4-0.9-0.7
		c-0.3-0.3-0.4-0.8-0.4-1.4c0-0.9,0.3-1.5,1-1.9c0.7-0.4,1.5-0.6,2.6-0.6c0.3,0,0.5,0,0.9,0c0.3,0,0.6,0.1,0.9,0.1L155.9,26.7
		L155.9,26.7z M158.6,14c-1.3-1.1-3.2-1.7-5.5-1.7c-0.9,0-1.8,0.1-2.8,0.2c-0.4,0.1-0.8,0.1-1.3,0.3c-0.1,0-0.2,0-0.3,0.1
		c-0.5,0.1-0.9,0.3-1.4,0.4c0,0.6,0.1,1.1,0.2,1.6c0,0.1,0,0.2,0.1,0.3c0,0.1,0,0.1,0.1,0.2c0.3,0.6,0.9,1.1,1.7,1.1h0
		c0.1,0,0.2,0,0.3,0c0.1,0,0.2,0,0.3-0.1c0.8-0.2,1.6-0.3,2.3-0.3c0.6,0,1.1,0,1.6,0.1c0.5,0.1,0.8,0.2,1.2,0.4
		c0.3,0.2,0.6,0.5,0.8,0.8c0.2,0.3,0.3,0.8,0.3,1.3v0.4c-0.8-0.1-1.5-0.1-2.2-0.1c-0.9,0-1.8,0.1-2.7,0.3c-0.9,0.2-1.7,0.5-2.5,0.9
		c-0.7,0.4-1.3,1-1.8,1.8c-0.5,0.7-0.7,1.7-0.7,2.7c0,0.6,0,1.1,0.1,1.5l0,0c-0.2,0-1.6,0.2-1.8,0.3c-0.2,0-0.4,0-0.6,0
		c-0.4,0-0.8,0-1-0.1c-0.3-0.1-0.5-0.3-0.7-0.5s-0.3-0.6-0.4-1c-0.1-0.4-0.1-1-0.1-1.7V7.5c0-1.3-1.1-2.3-2.4-2.3h0
		c-0.8,0-1.6,0.1-2.4,0.2v19c0,2.2,0.5,3.8,1.6,4.7c1.1,1,2.5,1.4,4.2,1.4c0.4,0,0.9,0,1.4-0.1c0.4,0,3.3-0.6,4.6-0.8
		c0.6,0.3,1.3,0.6,2.1,0.8c1,0.2,2,0.3,3.2,0.3c1.4,0,3.6-0.3,4.9-0.6c1.2-0.3,1.9-1.2,1.9-2.3v-8.4C160.7,16.9,160,15.1,158.6,14
		 M128.8,25.6c-0.7,0.9-1.8,1.4-3.2,1.4c-0.8,0-1.5-0.1-2.1-0.3v-6c0-0.6,0.1-1.1,0.2-1.6c0.1-0.5,0.3-0.9,0.5-1.3
		c0.3-0.4,0.6-0.7,1-0.9c0.4-0.2,0.9-0.3,1.5-0.3c0.6,0,1.1,0.1,1.6,0.4c0.4,0.3,0.8,0.6,1,1c0.3,0.4,0.5,0.9,0.6,1.6
		c0.1,0.6,0.2,1.3,0.2,2C129.9,23.3,129.6,24.7,128.8,25.6 M133.1,14.6c-0.6-0.7-1.4-1.3-2.2-1.7c-0.8-0.4-1.8-0.5-2.7-0.5
		c-0.6,0-1.2,0.1-1.7,0.3c-0.5,0.2-1,0.4-1.4,0.7c-0.4,0.3-0.8,0.6-1.1,0.9c-0.3,0.3-0.6,0.7-0.8,1.1c0-0.2,0-0.4-0.1-0.6
		c0-0.1,0-0.1,0-0.2c-0.7-2.1-4.4-1-4.4-1v12.9c-0.3,0.1-1,0.2-1.2,0.2c-0.2,0-0.4,0-0.6,0c-0.4,0-0.8,0-1-0.1
		c-0.3-0.1-0.5-0.3-0.7-0.5c-0.2-0.2-0.3-0.6-0.4-1c-0.1-0.4-0.1-1-0.1-1.7V7.6c0-1.3-1.1-2.3-2.4-2.3h0c-0.8,0-1.6,0.1-2.4,0.2v19
		c0,0.7,0.1,1.4,0.2,2c-0.3,0.1-1,0.2-1.2,0.2c-0.2,0-0.4,0-0.6,0c-0.4,0-0.8,0-1-0.1c-0.3-0.1-0.5-0.3-0.7-0.5
		c-0.2-0.2-0.3-0.6-0.4-1c-0.1-0.4-0.1-1-0.1-1.7V7.6c0-1.3-1.1-2.3-2.4-2.3l0,0c-0.8,0-1.6,0.1-2.4,0.2v19c0,2.2,0.5,3.8,1.6,4.7
		c1.1,1,2.5,1.4,4.2,1.4c0.4,0,0.9,0,1.4-0.1c0.5,0,3.3-0.5,3.9-0.7c0.9,0.5,2,0.8,3.2,0.8c0.4,0,0.9,0,1.4-0.1
		c0.2,0,0.9-0.1,1.6-0.2v8.2c0.4,0.1,0.8,0.1,1.2,0.1c0.4,0,0.8,0,1.2,0h0.1c1.2,0,2.2-0.9,2.4-2.1v-5.9c0.2,0,0.6,0.1,0.9,0.1
		c0.4,0,0.8,0,1.1,0c1.5,0,2.8-0.2,4-0.7c1.2-0.4,2.2-1.1,3-1.9c0.8-0.8,1.4-1.8,1.9-3c0.4-1.2,0.7-2.5,0.7-4s-0.2-2.8-0.5-4
		C134.2,16.3,133.7,15.3,133.1,14.6 M195.9,17.1c-0.3,0-0.6,0-0.9-0.1c-0.3-0.1-0.5-0.2-0.7-0.4c-0.2-0.2-0.3-0.4-0.4-0.7
		c-0.1-0.3-0.1-0.6-0.1-0.9c0-0.3,0.1-0.7,0.2-0.9c0.1-0.3,0.3-0.5,0.5-0.7c0.2-0.2,0.4-0.3,0.7-0.4c0.3-0.1,0.5-0.1,0.8-0.1
		c0.3,0,0.6,0,0.9,0.1c0.3,0.1,0.5,0.3,0.7,0.4c0.2,0.2,0.3,0.4,0.4,0.7c0.1,0.3,0.1,0.6,0.1,0.9c0,0.3-0.1,0.7-0.2,0.9
		c-0.1,0.3-0.3,0.5-0.5,0.7c-0.2,0.2-0.4,0.3-0.7,0.4C196.5,17,196.2,17.1,195.9,17.1L195.9,17.1z M195.9,16.6
		c0.5,0,0.9-0.1,1.2-0.4c0.3-0.3,0.4-0.7,0.4-1.3s-0.1-1-0.4-1.3c-0.3-0.3-0.7-0.4-1.2-0.4c-0.5,0-0.8,0.1-1.1,0.4
		c-0.3,0.3-0.4,0.7-0.4,1.3s0.1,1,0.4,1.3C195,16.5,195.4,16.6,195.9,16.6z M195.1,13.8h0.8c0.2,0,0.3,0,0.5,0.1
		c0.1,0,0.2,0.1,0.3,0.1c0.1,0.1,0.1,0.1,0.1,0.2c0,0.1,0,0.2,0,0.2c0,0.1,0,0.3-0.1,0.4c0,0.1-0.1,0.2-0.3,0.2l0.4,0.9h-0.5
		l-0.4-0.8h-0.4v0.8h-0.5L195.1,13.8L195.1,13.8L195.1,13.8z M195.9,14.7c0.2,0,0.3,0,0.3-0.1c0-0.1,0-0.1,0-0.2
		c0-0.1,0-0.1-0.1-0.2c0,0-0.2-0.1-0.4-0.1h-0.3v0.5H195.9L195.9,14.7z"/>
</g>
</svg>
